<svg width="374" height="286" xmlns="http://www.w3.org/2000/svg" xmlns:xlink="http://www.w3.org/1999/xlink" xml:space="preserve" overflow="hidden"><defs><clipPath id="clip0"><rect x="692" y="272" width="374" height="286"/></clipPath></defs><g clip-path="url(#clip0)" transform="translate(-692 -272)"><path d="M71.7788 140.732 71.7788 141.032C71.7788 141.177 71.746 141.303 71.6945 141.421 71.6945 141.594 71.507 142.17 71.1368 143.145 70.7618 144.12 70.5791 145.465 70.5791 147.19L70.5791 160.439C70.5791 161.16 70.4385 161.826 70.162 162.44 69.9277 162.955 69.5949 163.438 69.1591 163.883 68.2124 164.858 67.0548 165.345 65.677 165.345L42.6052 165.345C42.6052 165.12 42.638 164.914 42.6896 164.741 42.6896 164.567 42.877 163.996 43.2473 163.021 43.6175 162.046 43.805 160.696 43.805 158.976L43.805 141.336C43.805 139.673 43.505 138.337 42.9005 137.334 42.3006 136.331 42.0006 135.773 42.0006 135.656 41.8835 135.258 41.8835 134.827 42.0006 134.367 42.0006 134.194 42.3006 133.618 42.9005 132.643 43.505 131.668 43.805 130.323 43.805 128.598L43.805 101.407C43.805 99.6871 43.6175 98.342 43.2473 97.3626 42.877 96.3878 42.6896 95.816 42.6896 95.6426 42.6333 95.4692 42.6052 95.2724 42.6052 95.038L65.6676 95.038C66.8908 95.038 67.9734 95.4598 68.9013 96.3081 68.9716 96.369 69.0419 96.4346 69.1075 96.5049 70.0823 97.4797 70.5697 98.6279 70.5697 99.9448L70.5697 111.043C70.5697 112.767 70.7525 114.112 71.1274 115.087 71.4976 116.066 71.6851 116.638 71.6851 116.812 71.7413 117.041 71.7694 117.271 71.7694 117.501L59.8048 117.501C59.8048 117.271 59.8376 117.041 59.8891 116.812 59.95 116.638 60.1469 116.066 60.4937 115.087 60.8358 114.112 61.0092 112.767 61.0092 111.043L61.0092 104.589 53.3514 104.589 53.3514 155.785 61.0092 155.785 61.0092 147.18C61.0092 145.456 60.8358 144.111 60.4937 143.136 60.1469 142.161 59.95 141.585 59.8891 141.411 59.8329 141.299 59.8048 141.168 59.8048 141.022L59.8048 140.722 71.7788 140.722Z" transform="matrix(1.00087 0 0 1 692 272.031)"/><path d="M101.805 164.652 101.805 165.341 113.765 165.341 113.592 164.652C113.54 164.539 113.297 164.094 112.866 163.321 112.434 162.543 112.134 161.296 111.961 159.576L107.49 124.123 110.846 116.296C111.132 115.668 111.328 115.106 111.446 114.618 111.558 114.136 111.614 113.484 111.614 112.683L111.53 99.6027C111.413 98.2858 110.883 97.1798 109.937 96.2894 108.995 95.4036 107.86 94.9537 106.539 94.9537L83.5701 94.9537 83.5701 95.5536C83.6217 95.727 83.8279 96.2987 84.1653 97.2735 84.5121 98.253 84.6855 99.598 84.6855 101.318 84.6855 105.962 84.6996 110.569 84.7277 115.129 84.7558 119.694 84.7699 124.296 84.7699 128.94 84.6574 130.543 84.3387 131.794 83.8279 132.685 83.3077 133.571 83.0218 134.105 82.9656 134.278 82.8531 134.738 82.8531 135.164 82.9656 135.567 83.0265 135.684 83.3124 136.2 83.8279 137.114 84.3387 138.037 84.6574 139.265 84.7699 140.811L84.7699 158.967C84.7699 160.631 84.5965 161.966 84.2497 162.969 83.9029 163.972 83.706 164.53 83.6498 164.647L83.6498 165.336 95.0052 165.336 95.0052 164.647C94.9443 164.535 94.8318 163.972 94.6584 162.969 94.4897 161.966 94.4007 160.631 94.4007 158.967L94.4007 126.536 98.2718 126.536 102.316 159.581C102.551 161.301 102.513 162.547 102.227 163.325 101.946 164.099 101.805 164.539 101.805 164.652ZM101.974 112.167 99.912 116.985 94.4054 116.985 94.4054 104.252 101.974 104.252 101.974 112.167Z" transform="matrix(1.00087 0 0 1 692 272.031)"/><path d="M136.397 141.336 136.397 158.976C136.397 160.696 136.57 162.046 136.912 163.021 137.259 163.996 137.456 164.567 137.517 164.741 137.573 164.914 137.601 165.116 137.601 165.345L125.636 165.345C125.636 165.12 125.669 164.914 125.721 164.741 125.721 164.567 125.908 163.996 126.278 163.021 126.653 162.046 126.836 160.696 126.836 158.976L126.836 141.336C126.836 139.673 126.536 138.337 125.932 137.334 125.327 136.331 125.032 135.773 125.032 135.656 124.915 135.258 124.915 134.827 125.032 134.367 125.032 134.194 125.327 133.618 125.932 132.643 126.536 131.668 126.836 130.323 126.836 128.598L126.836 101.407C126.836 99.6871 126.653 98.342 126.278 97.3626 125.908 96.3878 125.721 95.816 125.721 95.6426 125.664 95.4692 125.636 95.2724 125.636 95.038L137.601 95.038C137.601 95.2677 137.568 95.4692 137.517 95.6426 137.456 95.816 137.259 96.3878 136.912 97.3626 136.565 98.342 136.397 99.6871 136.397 101.407L136.397 128.598C136.397 130.323 136.683 131.668 137.259 132.643 137.831 133.618 138.149 134.194 138.201 134.367 138.262 134.827 138.262 135.258 138.201 135.656 138.145 135.773 137.831 136.336 137.259 137.334 136.683 138.337 136.397 139.673 136.397 141.336Z" transform="matrix(1.00087 0 0 1 692 272.031)"/><path d="M195.334 141.336 195.334 158.976C195.334 160.696 195.508 162.046 195.85 163.021 196.192 163.996 196.394 164.567 196.45 164.741L196.45 165.345 184.574 165.345C184.574 165.12 184.602 164.914 184.658 164.741 184.658 164.567 184.832 163.996 185.174 163.021 185.516 162.046 185.69 160.696 185.69 158.976L185.69 126.878 179.405 158.976C179.119 160.696 179.091 162.046 179.321 163.021 179.55 163.996 179.667 164.567 179.667 164.741 179.667 164.858 179.653 164.97 179.625 165.088 179.597 165.205 179.583 165.289 179.583 165.345L167.018 165.345C167.018 165.289 167.004 165.205 166.976 165.088 166.948 164.975 166.934 164.863 166.934 164.741 166.934 164.567 167.051 164.024 167.281 163.11 167.51 162.196 167.51 160.902 167.281 159.239L160.827 126.883 160.827 158.981C160.827 160.701 161.01 162.051 161.385 163.025 161.755 164 161.943 164.572 161.943 164.745 161.999 164.919 162.027 165.12 162.027 165.35L150.152 165.35 150.152 164.745C150.213 164.572 150.409 164 150.756 163.025 151.098 162.051 151.272 160.701 151.272 158.981L151.272 141.341C151.272 139.677 150.986 138.342 150.409 137.339 149.838 136.336 149.519 135.778 149.467 135.661 149.35 135.262 149.35 134.831 149.467 134.372 149.524 134.199 149.838 133.622 150.409 132.647 150.986 131.673 151.272 130.328 151.272 128.603L151.272 101.412C151.272 99.6918 151.098 98.3467 150.756 97.3672 150.409 96.3925 150.213 95.8207 150.152 95.6473L150.152 95.0427 165.73 95.0427 173.303 141.852 180.876 95.0427 196.45 95.0427 196.45 95.6473C196.394 95.8207 196.192 96.3925 195.85 97.3672 195.503 98.3467 195.334 99.6918 195.334 101.412L195.334 128.603C195.334 130.328 195.62 131.673 196.192 132.647 196.768 133.622 197.082 134.199 197.139 134.372 197.2 134.831 197.2 135.262 197.139 135.661 197.078 135.778 196.768 136.34 196.192 137.339 195.62 138.337 195.334 139.673 195.334 141.336Z" transform="matrix(1.00087 0 0 1 692 272.031)"/><path d="M227.428 117.243 227.428 104.594 219.854 104.594 219.854 113.883 229.148 128.598 229.148 128.514 229.316 128.861 229.658 129.376C230.633 130.867 231.641 132.015 232.672 132.816 233.703 133.618 234.275 134.11 234.392 134.278 234.739 134.738 234.996 135.169 235.165 135.567 235.226 135.684 235.296 136.083 235.381 136.772 235.465 137.46 235.653 138.29 235.938 139.265 236.398 140.183 236.698 141.018 236.843 141.763 236.984 142.508 237.059 143.426 237.059 144.514L237.059 160.349C237.059 161.723 236.571 162.904 235.596 163.878 234.622 164.853 233.445 165.341 232.067 165.341L215.201 165.341C213.823 165.341 212.646 164.853 211.672 163.878 210.692 162.904 210.209 161.727 210.209 160.349L210.209 152.518C210.209 150.798 210.036 149.453 209.694 148.474 209.352 147.499 209.15 146.927 209.089 146.754L209.089 146.149 219.845 146.149 219.845 155.789 227.418 155.789 227.418 142.283 226.383 140.647C225.295 139.157 224.203 137.967 223.111 137.076 222.019 136.186 221.42 135.684 221.302 135.567 221.129 135.342 220.974 135.127 220.834 134.925 220.688 134.724 220.562 134.508 220.445 134.278L220.445 133.721C220.445 133.402 220.403 133.018 220.314 132.558 220.229 132.099 220.056 131.523 219.798 130.834 219.54 130.149 219.118 129.372 218.551 128.514L218.983 129.118 211.409 117.332C210.659 116.071 210.256 114.721 210.205 113.287L210.205 99.9495C210.205 98.5717 210.692 97.3954 211.667 96.4206 212.642 95.4458 213.818 94.9584 215.196 94.9584L232.063 94.9584C233.441 94.9584 234.617 95.4458 235.592 96.4206 236.566 97.3954 237.054 98.5717 237.054 99.9495L237.054 110.874C237.054 112.598 237.227 113.943 237.569 114.918 237.911 115.898 238.113 116.47 238.169 116.643L238.169 117.247 227.428 117.247Z" transform="matrix(1.00087 0 0 1 692 272.031)"/><path d="M279.659 134.283C279.598 134.114 279.284 133.533 278.712 132.558 278.136 131.584 277.85 130.239 277.85 128.514L277.85 99.6027C277.733 98.2858 277.222 97.1798 276.303 96.2894 275.39 95.4036 274.27 94.9537 272.948 94.9537L255.997 94.9537C254.619 94.9537 253.461 95.4458 252.51 96.4206 251.563 97.3954 251.09 98.5389 251.09 99.8605L251.09 128.514C251.09 130.239 250.79 131.584 250.185 132.558 249.586 133.533 249.286 134.11 249.286 134.283 249.173 134.742 249.173 135.169 249.286 135.572 249.286 135.689 249.586 136.247 250.185 137.25 250.785 138.257 251.09 139.588 251.09 141.252L251.09 160.354C251.09 161.671 251.563 162.824 252.51 163.794 253.461 164.769 254.619 165.252 255.997 165.252L272.948 165.252C274.265 165.252 275.413 164.769 276.388 163.794 277.363 162.819 277.855 161.671 277.855 160.354L277.855 141.252C277.855 139.588 278.141 138.257 278.717 137.25 279.289 136.247 279.603 135.689 279.664 135.572 279.715 135.169 279.715 134.742 279.659 134.283ZM268.299 155.705 260.641 155.705 260.641 104.51 268.299 104.51 268.299 155.705Z" transform="matrix(1.00087 0 0 1 692 272.031)"/><path d="M329.908 141.336 329.908 158.976C329.908 160.696 330.081 162.046 330.423 163.021 330.766 163.996 330.967 164.567 331.023 164.741L331.023 165.345 316.57 165.345 316.565 165.336 312.226 150.25 305.28 126.143 302.37 116.038 302.37 158.976C302.37 160.696 302.543 162.046 302.885 163.021 303.232 163.996 303.401 164.567 303.401 164.741 303.457 164.914 303.485 165.116 303.485 165.345L291.61 165.345 291.61 164.741C291.666 164.567 291.867 163.996 292.214 163.021 292.556 162.046 292.725 160.696 292.725 158.976L292.725 141.336C292.725 139.673 292.439 138.337 291.867 137.334 291.291 136.331 290.977 135.773 290.921 135.656 290.808 135.258 290.808 134.827 290.921 134.367 290.982 134.194 291.291 133.618 291.867 132.643 292.439 131.668 292.725 130.323 292.725 128.598L292.725 101.407C292.725 99.6871 292.552 98.342 292.214 97.3626 291.867 96.3878 291.666 95.816 291.61 95.6426L291.61 95.038 305.89 95.038 305.913 95.1224 312.854 119.305 317.207 134.48 320.263 145.118 320.263 101.407C320.263 99.6871 320.09 98.342 319.748 97.3626 319.401 96.3878 319.232 95.816 319.232 95.6426 319.171 95.4692 319.148 95.2724 319.148 95.038L331.023 95.038 331.023 95.6426C330.967 95.816 330.766 96.3878 330.423 97.3626 330.077 98.342 329.908 99.6871 329.908 101.407L329.908 128.598C329.908 130.323 330.194 131.668 330.766 132.643 331.342 133.618 331.656 134.194 331.712 134.367 331.773 134.827 331.773 135.258 331.712 135.656 331.656 135.773 331.342 136.336 330.766 137.334 330.194 138.337 329.908 139.673 329.908 141.336Z" transform="matrix(1.00087 0 0 1 692 272.031)"/><path d="M135.328 74.6845C135.516 74.3564 135.619 74.1783 135.633 74.1408 135.651 74.0096 135.651 73.869 135.633 73.719 135.614 73.6628 135.511 73.4753 135.328 73.1613 135.141 72.8427 135.047 72.4068 135.047 71.8491L135.047 63.015C135.047 62.4573 135.103 62.0168 135.216 61.7028 135.328 61.3841 135.394 61.2013 135.408 61.1451L135.408 60.9483 130.346 60.9483 127.886 76.156 125.425 60.9483 120.364 60.9483 120.364 61.1451C120.383 61.2013 120.448 61.3888 120.556 61.7028 120.669 62.0215 120.725 62.4573 120.725 63.015L120.725 71.8491C120.725 72.4068 120.631 72.8474 120.448 73.1613 120.261 73.48 120.158 73.6628 120.139 73.719 120.102 73.869 120.102 74.0096 120.139 74.1408 120.158 74.1783 120.261 74.3564 120.448 74.6845 120.636 75.0125 120.725 75.4437 120.725 75.9873L120.725 81.7189C120.725 82.2766 120.669 82.7172 120.556 83.0312 120.448 83.3499 120.378 83.5326 120.364 83.5889L120.364 83.7857 124.221 83.7857C124.221 83.7107 124.212 83.6451 124.193 83.5889 124.193 83.5326 124.132 83.3452 124.01 83.0312 123.888 82.7125 123.827 82.2766 123.827 81.7189L123.827 71.2914 125.927 81.8033C126.002 82.3423 126.002 82.764 125.927 83.0593 125.852 83.3592 125.814 83.5326 125.814 83.5889 125.814 83.6264 125.819 83.6639 125.829 83.7013 125.838 83.7388 125.843 83.767 125.843 83.7857L129.925 83.7857C129.925 83.767 129.929 83.7388 129.939 83.7013 129.948 83.6639 129.953 83.6264 129.953 83.5889 129.953 83.5326 129.915 83.3452 129.84 83.0312 129.765 82.7125 129.775 82.2766 129.868 81.7189L131.912 71.2914 131.912 81.7189C131.912 82.2766 131.855 82.7172 131.743 83.0312 131.63 83.3499 131.574 83.5326 131.574 83.5889 131.555 83.6451 131.546 83.7107 131.546 83.7857L135.403 83.7857 135.403 83.5889C135.384 83.5326 135.323 83.3452 135.211 83.0312 135.098 82.7125 135.042 82.2766 135.042 81.7189L135.042 75.9873C135.047 75.4437 135.141 75.0125 135.328 74.6845Z" transform="matrix(1.00087 0 0 1 692 272.031)"/><path d="M149.139 73.6909C149.121 73.6347 149.017 73.4472 148.835 73.1332 148.647 72.8145 148.553 72.3787 148.553 71.821L148.553 62.4292C148.516 62.0027 148.347 61.6419 148.052 61.3513 147.752 61.0607 147.387 60.9155 146.96 60.9155L141.453 60.9155C141.008 60.9155 140.629 61.0748 140.319 61.3888 140.015 61.7075 139.855 62.0824 139.855 62.5089L139.855 71.8163C139.855 72.374 139.757 72.8145 139.56 73.1285 139.368 73.4472 139.265 73.63 139.265 73.6862 139.227 73.8362 139.227 73.9768 139.265 74.108 139.265 74.1455 139.363 74.3283 139.56 74.6517 139.757 74.9797 139.855 75.4109 139.855 75.9545L139.855 82.1595C139.855 82.586 140.01 82.9609 140.319 83.2749 140.629 83.5936 141.003 83.7529 141.453 83.7529L146.96 83.7529C147.387 83.7529 147.761 83.5936 148.08 83.2749 148.399 82.9562 148.553 82.586 148.553 82.1595L148.553 75.9545C148.553 75.4156 148.647 74.9797 148.835 74.6517 149.017 74.3283 149.125 74.1455 149.139 74.108 149.158 73.9862 149.158 73.8456 149.139 73.6909ZM145.446 80.6551 142.958 80.6551 142.958 64.0179 145.446 64.0179 145.446 80.6551Z" transform="matrix(1.00087 0 0 1 692 272.031)"/><path d="M152.523 60.9436 152.523 64.4397C152.598 64.4397 152.673 64.4304 152.748 64.4116 152.785 64.4116 152.964 64.3507 153.287 64.2288 153.606 64.107 154.046 64.0461 154.613 64.0461L155.377 64.0461 155.377 71.8444C155.377 72.4021 155.283 72.8427 155.096 73.1567 154.908 73.4753 154.805 73.6581 154.787 73.7144 154.749 73.8643 154.749 74.0049 154.787 74.1361 154.805 74.1736 154.908 74.3517 155.096 74.6798 155.283 75.0078 155.377 75.439 155.377 75.9826L155.344 81.7143C155.344 82.272 155.283 82.7125 155.161 83.0265 155.04 83.3452 154.979 83.5279 154.979 83.5842 154.96 83.6404 154.951 83.706 154.951 83.781L158.864 83.781C158.864 83.706 158.854 83.6404 158.831 83.5842 158.831 83.5279 158.765 83.3405 158.639 83.0265 158.508 82.7078 158.447 82.272 158.447 81.7143L158.447 75.9826C158.447 75.4437 158.54 75.0078 158.723 74.6798 158.911 74.3517 159.014 74.1736 159.033 74.1361 159.051 74.0049 159.051 73.8643 159.033 73.7144 159.014 73.6581 158.911 73.4707 158.723 73.1567 158.536 72.838 158.447 72.4021 158.447 71.8444L158.447 64.0461 159.211 64.0461C159.773 64.0461 160.218 64.107 160.537 64.2288 160.856 64.3507 161.034 64.4116 161.071 64.4116 161.146 64.4304 161.221 64.4397 161.296 64.4397L161.296 60.9436 152.523 60.9436Z" transform="matrix(1.00087 0 0 1 692 272.031)"/><path d="M174.746 73.6909C174.728 73.6347 174.625 73.4472 174.442 73.1332 174.254 72.8145 174.161 72.3787 174.161 71.821L174.161 62.4292C174.123 62.0027 173.954 61.6419 173.659 61.3513 173.359 61.0607 172.998 60.9155 172.572 60.9155L167.061 60.9155C166.615 60.9155 166.236 61.0748 165.931 61.3888 165.622 61.7075 165.467 62.0824 165.467 62.5089L165.467 71.8163C165.467 72.374 165.369 72.8145 165.172 73.1285 164.975 73.4472 164.877 73.63 164.877 73.6862 164.839 73.8362 164.839 73.9768 164.877 74.108 164.877 74.1455 164.975 74.3283 165.172 74.6517 165.364 74.9797 165.467 75.4109 165.467 75.9545L165.467 82.1595C165.467 82.586 165.622 82.9609 165.931 83.2749 166.236 83.5936 166.615 83.7529 167.061 83.7529L172.572 83.7529C172.998 83.7529 173.373 83.5936 173.687 83.2749 174.001 82.9562 174.161 82.586 174.161 82.1595L174.161 75.9545C174.161 75.4156 174.254 74.9797 174.442 74.6517 174.629 74.3283 174.732 74.1455 174.746 74.108 174.765 73.9862 174.765 73.8456 174.746 73.6909ZM171.058 80.6551 168.57 80.6551 168.57 64.0179 171.058 64.0179 171.058 80.6551Z" transform="matrix(1.00087 0 0 1 692 272.031)"/><path d="M184.532 83.5608 184.532 83.7857 188.417 83.7857 188.361 83.5608C188.342 83.5233 188.262 83.378 188.122 83.1249 187.981 82.8765 187.883 82.4688 187.827 81.9111L186.374 70.3916 187.466 67.8468C187.559 67.6406 187.625 67.4625 187.658 67.3032 187.695 67.1439 187.714 66.933 187.714 66.6752L187.686 62.4245C187.648 61.998 187.475 61.6372 187.17 61.3466 186.861 61.0561 186.496 60.9108 186.064 60.9108L178.603 60.9108 178.603 61.1076C178.622 61.1638 178.688 61.3513 178.8 61.6653 178.913 61.984 178.969 62.4198 178.969 62.9775 178.969 64.4866 178.974 65.9816 178.983 67.4625 178.992 68.9435 178.997 70.4385 178.997 71.9522 178.96 72.4724 178.857 72.8802 178.688 73.1707 178.524 73.4613 178.425 73.63 178.411 73.6862 178.374 73.8362 178.374 73.9768 178.411 74.108 178.43 74.1455 178.524 74.3142 178.688 74.6095 178.857 74.9094 178.96 75.3078 178.997 75.8092L178.997 81.7096C178.997 82.2485 178.941 82.6844 178.828 83.0077 178.716 83.3358 178.65 83.5139 178.632 83.5561L178.632 83.781 182.325 83.781 182.325 83.5561C182.306 83.5186 182.268 83.3358 182.212 83.0077 182.156 82.6844 182.128 82.2485 182.128 81.7096L182.128 71.1696 183.384 71.1696 184.696 81.9064C184.771 82.4641 184.762 82.8718 184.668 83.1202 184.579 83.3827 184.532 83.5233 184.532 83.5608ZM184.588 66.5065 183.918 68.0718 182.128 68.0718 182.128 63.9336 184.588 63.9336 184.588 66.5065Z" transform="matrix(1.00087 0 0 1 692 272.031)"/><path d="M198.231 75.8889C198.231 75.9358 198.24 75.978 198.259 76.0154 198.278 76.0717 198.343 76.2591 198.451 76.5731 198.563 76.8918 198.62 77.3277 198.62 77.8854L198.62 80.6785 196.131 80.6785 196.131 64.0461 198.62 64.0461 198.62 66.1456C198.62 66.7033 198.563 67.1439 198.451 67.4578 198.343 67.7765 198.273 67.9593 198.259 68.0155 198.24 68.0905 198.231 68.1655 198.231 68.2405L202.116 68.2405C202.116 68.1655 202.106 68.0905 202.088 68.0155 202.088 67.9593 202.027 67.7718 201.905 67.4578 201.783 67.1392 201.722 66.7033 201.722 66.1456L201.722 62.5417C201.722 62.1152 201.563 61.7403 201.249 61.4216 200.935 61.1029 200.56 60.9483 200.133 60.9483L192.64 60.9483C192.64 61.0233 192.649 61.0889 192.668 61.1451 192.668 61.2013 192.729 61.3888 192.851 61.7028 192.972 62.0215 193.033 62.4573 193.033 63.015L193.033 71.8491C193.033 72.4068 192.935 72.8474 192.738 73.1613 192.541 73.48 192.443 73.6628 192.443 73.719 192.405 73.869 192.405 74.0096 192.443 74.1408 192.443 74.1783 192.541 74.3564 192.738 74.6845 192.93 75.0125 193.033 75.4437 193.033 75.9873L193.033 81.7189C193.033 82.2766 192.972 82.7172 192.851 83.0312 192.729 83.3499 192.668 83.5326 192.668 83.5889 192.649 83.6451 192.64 83.7107 192.64 83.7857L200.133 83.7857C200.579 83.7857 200.958 83.6264 201.268 83.3077 201.572 82.989 201.727 82.6188 201.727 82.1923L201.727 77.8854C201.727 77.3277 201.788 76.8871 201.91 76.5731 202.031 76.2545 202.092 76.0717 202.092 76.0154 202.111 75.978 202.12 75.9358 202.12 75.8889L202.12 75.7905 198.235 75.7905 198.235 75.8889Z" transform="matrix(1.00087 0 0 1 692 272.031)"/><path d="M210.781 60.8873C210.781 60.9248 210.762 60.9998 210.725 61.1123 210.725 61.1498 210.734 61.2998 210.753 61.5575 210.772 61.82 210.725 62.1621 210.612 62.5932L209.858 66.0003 209.188 62.9822C209.019 62.4245 208.944 61.984 208.963 61.67 208.982 61.3513 208.991 61.1685 208.991 61.1123L208.935 60.8873 205.218 60.8873C205.218 60.9623 205.246 61.0373 205.303 61.1123 205.321 61.1498 205.401 61.281 205.542 61.52 205.682 61.7543 205.813 62.073 205.949 62.4854L206.085 62.9869 208.297 72.2147C208.241 72.6411 208.138 72.9786 207.993 73.2223 207.843 73.466 207.758 73.6113 207.74 73.6675 207.702 73.8175 207.702 73.9581 207.74 74.0893 207.758 74.1268 207.861 74.3095 208.044 74.6329 208.232 74.961 208.325 75.3921 208.325 75.9358L208.325 81.6955C208.325 82.2345 208.265 82.6703 208.143 82.9937 208.021 83.3217 207.96 83.4998 207.96 83.542 207.941 83.617 207.932 83.692 207.932 83.767L211.817 83.767C211.817 83.692 211.808 83.617 211.789 83.542 211.789 83.5045 211.728 83.3217 211.606 82.9937 211.484 82.6703 211.423 82.2345 211.423 81.6955L211.423 75.9358C211.423 75.3968 211.517 74.961 211.704 74.6329 211.892 74.3095 211.995 74.1268 212.009 74.0893 212.028 73.9581 212.028 73.8175 212.009 73.6675 212.009 73.6113 211.929 73.4613 211.77 73.2223 211.611 72.9786 211.503 72.6458 211.447 72.2147 211.634 71.5211 211.826 70.7618 212.023 69.923 212.215 69.0841 212.412 68.2264 212.609 67.3501 212.801 66.4737 212.993 65.616 213.181 64.7772 213.368 63.9383 213.565 63.1744 213.771 62.4854 213.902 62.073 214.038 61.7543 214.174 61.52 214.315 61.2857 214.394 61.1498 214.413 61.1123 214.451 60.9998 214.469 60.9248 214.469 60.8873L210.781 60.8873Z" transform="matrix(1.00087 0 0 1 692 272.031)"/><path d="M223.449 75.8889C223.449 75.9358 223.458 75.978 223.477 76.0154 223.496 76.0717 223.561 76.2591 223.674 76.5731 223.786 76.8918 223.843 77.3277 223.843 77.8854L223.843 80.6785 221.354 80.6785 221.354 64.0461 223.843 64.0461 223.843 66.1456C223.843 66.7033 223.786 67.1439 223.674 67.4578 223.561 67.7765 223.496 67.9593 223.477 68.0155 223.458 68.0905 223.449 68.1655 223.449 68.2405L227.334 68.2405C227.334 68.1655 227.325 68.0905 227.306 68.0155 227.306 67.9593 227.245 67.7718 227.123 67.4578 227.001 67.1392 226.94 66.7033 226.94 66.1456L226.94 62.5417C226.94 62.1152 226.781 61.7403 226.467 61.4216 226.153 61.1029 225.773 60.9483 225.347 60.9483L217.853 60.9483C217.853 61.0233 217.863 61.0889 217.881 61.1451 217.881 61.2013 217.942 61.3888 218.064 61.7028 218.186 62.0215 218.247 62.4573 218.247 63.015L218.247 71.8491C218.247 72.4068 218.148 72.8474 217.952 73.1613 217.759 73.48 217.656 73.6628 217.656 73.719 217.619 73.869 217.619 74.0096 217.656 74.1408 217.656 74.1783 217.755 74.3564 217.952 74.6845 218.148 75.0125 218.247 75.4437 218.247 75.9873L218.247 81.7189C218.247 82.2766 218.186 82.7172 218.064 83.0312 217.942 83.3499 217.881 83.5326 217.881 83.5889 217.863 83.6451 217.853 83.7107 217.853 83.7857L225.347 83.7857C225.797 83.7857 226.172 83.6264 226.481 83.3077 226.79 82.989 226.945 82.6188 226.945 82.1923L226.945 77.8854C226.945 77.3277 227.006 76.8871 227.128 76.5731 227.25 76.2545 227.311 76.0717 227.311 76.0154 227.329 75.978 227.339 75.9358 227.339 75.8889L227.339 75.7905 223.454 75.7905 223.454 75.8889Z" transform="matrix(1.00087 0 0 1 692 272.031)"/><path d="M240.447 83.0171C240.334 82.6937 240.278 82.2579 240.278 81.7189L240.278 80.6832 234.687 80.6832 234.687 75.9592C234.687 75.4202 234.781 74.9844 234.964 74.6563 235.151 74.333 235.245 74.1502 235.245 74.1127 235.264 73.9815 235.264 73.8409 235.245 73.6909 235.245 73.6347 235.151 73.4472 234.964 73.1332 234.776 72.8145 234.687 72.3787 234.687 71.821L234.687 63.015C234.687 62.4573 234.743 62.0168 234.856 61.7028 234.964 61.3841 235.02 61.2013 235.02 61.1451 235.039 61.0701 235.048 60.9951 235.048 60.9201L231.191 60.9201 231.191 61.1451C231.21 61.2013 231.275 61.3888 231.388 61.7028 231.5 62.0215 231.557 62.4573 231.557 63.015L231.557 71.821C231.557 72.3787 231.463 72.8192 231.275 73.1332 231.088 73.4519 230.985 73.6347 230.971 73.6909 230.933 73.8409 230.933 73.9815 230.971 74.1127 230.989 74.1502 231.093 74.333 231.275 74.6563 231.463 74.9844 231.557 75.4156 231.557 75.9592L231.557 81.7189C231.557 82.2579 231.5 82.6937 231.388 83.0171 231.275 83.3452 231.21 83.5233 231.191 83.5654L231.191 83.7904 240.644 83.7904 240.644 83.5654C240.62 83.5233 240.559 83.3452 240.447 83.0171Z" transform="matrix(1.00087 0 0 1 692 272.031)"/><path d="M251.488 64.0461C252.046 64.0461 252.482 64.1023 252.801 64.2148 253.119 64.3272 253.302 64.3929 253.358 64.4116 253.377 64.4304 253.424 64.4397 253.499 64.4397L253.555 64.4397 253.555 60.9436 244.468 60.9436C244.468 61.0186 244.477 61.0842 244.496 61.1404 244.496 61.1967 244.557 61.3841 244.679 61.6981 244.801 62.0168 244.862 62.4526 244.862 63.0103L244.862 71.8444C244.862 72.4021 244.763 72.8427 244.566 73.1567 244.369 73.4753 244.271 73.6581 244.271 73.7144 244.234 73.8643 244.234 74.0049 244.271 74.1361 244.271 74.1736 244.369 74.3517 244.566 74.6798 244.763 75.0078 244.862 75.439 244.862 75.9826L244.862 81.7143C244.862 82.272 244.801 82.7125 244.679 83.0265 244.557 83.3452 244.496 83.5279 244.496 83.5842 244.477 83.6404 244.468 83.706 244.468 83.781L253.555 83.781 253.555 80.2849 253.499 80.2849C253.48 80.2849 253.457 80.2896 253.429 80.2989 253.4 80.3083 253.377 80.313 253.358 80.313 253.302 80.313 253.115 80.3739 252.801 80.4958 252.482 80.6176 252.046 80.6785 251.488 80.6785L247.964 80.6785 247.964 71.2867 249.112 71.2867C249.67 71.2867 250.106 71.3477 250.424 71.4695 250.743 71.5914 250.931 71.6523 250.987 71.6523 251.062 71.671 251.137 71.6804 251.207 71.6804L251.207 67.7953C251.132 67.7953 251.057 67.8046 250.987 67.8234 250.931 67.8234 250.743 67.8843 250.424 68.0062 250.11 68.128 249.67 68.1889 249.112 68.1889L247.964 68.1889 247.964 64.0507 251.488 64.0507Z" transform="matrix(1.00087 0 0 1 692 272.031)"/><path d="M152.79 185.137C151.942 186.032 147.621 190.175 143.764 193.821 140.835 196.59 138.168 199.074 137.489 199.632 136.476 200.518 135.511 201.408 135.188 201.047 134.864 200.724 135.951 198.502 136.518 197.415 138.295 194.144 140.352 190.268 140.352 190.268L137.203 190.31 128.481 190.31C127.872 190.31 127.309 190.592 127.028 191.117L125.496 193.661C125.332 193.942 125.332 194.308 125.496 194.589 125.655 194.87 125.941 195.072 126.26 195.072L131.185 195.072C127.872 199.149 123.11 203.751 117.416 203.751 110.593 203.751 110.714 196.323 116.287 187.278 121.859 178.233 129.165 173.992 132.315 173.992 136.35 173.992 135.506 179.766 129.409 184.452 129.409 184.452 132.071 187.119 134.011 185.825 140.675 181.383 141.28 170.402 132.23 170.402 127.628 170.402 117.777 173.392 109.496 185.019 98.717 200.161 105.578 210.214 114.825 210.214 118.78 210.214 122.454 208.518 125.688 206.057 124.718 208.883 125.932 210.214 128.148 210.214 129.845 210.214 132.024 209.249 135.539 205.935 136.397 205.12 137.971 203.569 139.837 201.713 144.978 196.595 152.354 189.148 153.184 188.291 153.643 187.841 153.559 184.33 152.79 185.137Z" transform="matrix(1.00087 0 0 1 692 272.031)"/><path d="M180.595 186.228C180.595 186.168 180.591 186.111 180.586 186.055 180.534 185.183 180.319 184.457 179.902 184.874 179.461 185.338 178.102 186.664 176.359 188.347 172.122 192.429 165.608 198.596 164.483 199.519 163.424 200.419 162.482 201.314 162.116 200.949 161.788 200.621 162.894 198.376 163.504 197.279 165.261 193.971 171.091 183.121 171.091 183.121L164.605 183.163C164.605 183.163 163.625 185.043 162.196 187.691 161.704 185.282 159.993 183.121 157.669 183.121 154.224 183.121 149.28 185.825 143.769 193.821 143.534 194.158 143.3 194.51 143.061 194.87 141.421 197.364 140.38 199.679 139.855 201.708 138.524 206.854 140.511 210.209 144.49 210.209 147.307 210.209 150.203 208.213 152.612 205.804 151.511 208.822 152.734 210.209 155.016 210.209 156.731 210.209 158.972 209.23 162.482 205.888 165.186 203.32 174.892 193.582 178.791 189.64 179.597 188.825 180.155 188.258 180.352 188.056 180.534 187.855 180.628 187.011 180.595 186.228ZM157.58 195.766C154.969 200.171 151.136 203.761 149.013 203.761 146.932 203.761 147.34 200.171 149.95 195.766 152.603 191.36 156.441 187.77 158.559 187.77 160.645 187.77 160.237 191.36 157.58 195.766Z" transform="matrix(1.00087 0 0 1 692 272.031)"/><path d="M199.201 184.874C198.362 185.755 194.186 189.776 190.367 193.399 187.311 196.3 184.48 198.943 183.777 199.524 182.76 200.424 181.781 201.319 181.453 200.954 181.125 200.625 182.189 198.381 182.798 197.284 184.551 193.975 184.837 193.774 185.858 191.815 188.59 186.589 184.551 188.675 181.411 186.875 181.083 186.692 180.82 186.482 180.595 186.233 180.567 186.2 180.544 186.172 180.516 186.139 180.539 186.111 180.567 186.088 180.591 186.06 183.009 183.435 184.902 180.741 182.76 179.367 180.759 178.06 177.212 177.488 174.845 180.427 172.253 183.693 174.325 186.833 176.359 188.347 176.663 188.572 176.968 188.764 177.254 188.914 177.652 189.111 178.304 189.279 178.791 189.64 179.499 190.16 179.874 191.098 178.641 193.155 176.64 196.501 174.4 200.949 172.722 204.009 170.44 208.25 171.621 210.209 174.315 210.209 175.988 210.209 178.271 209.23 181.781 205.888 182.667 205.054 184.288 203.47 186.2 201.572 191.412 196.403 198.816 188.923 199.651 188.061 200.058 187.606 200.016 184.059 199.201 184.874Z" transform="matrix(1.00087 0 0 1 692 272.031)"/><path d="M226.214 184.874C225.169 185.975 218.94 191.941 214.68 195.944 212.782 197.725 211.278 199.116 210.791 199.519 209.727 200.419 208.794 201.314 208.424 200.949 208.096 200.621 209.202 198.376 209.811 197.279 211.569 193.971 217.403 183.121 217.403 183.121L210.912 183.163C210.912 183.163 209.933 185.043 208.508 187.691 208.016 185.282 206.306 183.121 203.981 183.121 200.597 183.121 195.766 185.727 190.371 193.399 190.039 193.872 189.706 194.36 189.373 194.87 187.77 197.312 186.739 199.571 186.205 201.572 184.804 206.798 186.791 210.214 190.803 210.214 193.619 210.214 196.515 208.218 198.92 205.809 197.818 208.827 199.041 210.214 201.324 210.214 203.039 210.214 205.284 209.235 208.794 205.893 209.464 205.256 210.57 204.173 211.911 202.847 217.08 197.734 225.755 189.003 226.664 188.061 227.067 187.606 227.029 184.059 226.214 184.874ZM203.892 195.766C201.277 200.171 197.443 203.761 195.325 203.761 193.244 203.761 193.652 200.171 196.262 195.766 198.915 191.36 202.748 187.77 204.871 187.77 206.952 187.77 206.545 191.36 203.892 195.766Z" transform="matrix(1.00087 0 0 1 692 272.031)"/><path d="M252.243 184.874C249.576 187.452 246.085 190.779 242.42 194.153 239.355 196.975 236.163 199.824 233.23 202.294 238.169 193.075 243.39 183.117 243.39 183.117L236.941 183.117 234.537 187.77C234.087 185.319 232.372 183.117 230.01 183.117 226.378 183.117 221.157 186.055 215.36 194.866 215.121 195.227 214.896 195.587 214.68 195.944 213.148 198.493 212.253 200.832 211.911 202.838 211.133 207.337 213.11 210.205 216.789 210.205 219.765 210.205 222.788 208.044 225.277 205.476L223.074 209.68C220.295 211.329 217.689 212.632 215.454 213.813 212.065 215.599 209.53 217.108 208.55 219.114 208.255 219.709 208.1 220.356 208.1 221.059 208.1 224.649 211.854 226.444 214.385 226.444 219.475 226.444 221.612 223.285 224.902 217.717 224.963 217.619 225.014 217.525 225.075 217.422 225.422 216.831 226.158 215.482 227.137 213.654 228.121 211.822 229.359 209.506 230.704 206.976 233.67 204.829 236.829 202.434 240.053 199.782 244.238 196.342 248.545 192.447 252.693 188.047 253.1 187.606 253.058 184.101 252.243 184.874ZM214.418 223.716C213.565 223.716 212.829 223.308 212.829 221.963 212.829 220.984 213.654 219.831 215.135 218.467 216.499 217.202 218.416 215.758 220.745 214.09L219.358 216.78C219.1 217.258 218.856 217.727 218.626 218.172 216.949 221.415 215.889 223.716 214.418 223.716ZM229.926 195.766C227.315 200.171 223.477 203.761 221.359 203.761 219.236 203.761 219.686 200.171 222.296 195.766 224.949 191.36 228.782 187.77 230.863 187.77 232.986 187.77 232.578 191.36 229.926 195.766Z" transform="matrix(1.00087 0 0 1 692 272.031)"/><path d="M262.239 199.519C258.443 202.866 254.567 205.354 251.263 205.354 247.753 205.354 246.324 203.273 247.022 200.007 247.594 200.536 248.287 200.986 249.183 201.23 252.735 202.331 256.775 200.415 260.28 196.047 266.115 188.745 262.441 183.112 256.526 183.112 252.936 183.112 247.345 186.294 242.776 193.558 242.654 193.755 242.532 193.952 242.42 194.144 241.253 196.112 240.461 198.015 240.053 199.782 238.657 205.795 241.67 210.2 249.225 210.2 252.899 210.2 256.775 208.691 260.163 205.917 264.119 202.65 267.751 200.326 267.751 203.672 267.751 206.69 262.08 213.382 250.738 213.382 248.958 213.382 239.435 213.495 227.137 213.654 223.449 213.701 219.507 213.752 215.454 213.804 189.382 214.141 158.526 214.563 158.526 214.563 158.526 214.563 173.987 223.13 178.721 226.439 183.716 222.797 195.742 220.52 208.546 219.104 210.73 218.861 212.937 218.645 215.135 218.453 216.302 218.35 217.469 218.251 218.626 218.162 220.754 217.994 222.854 217.844 224.897 217.717 238.521 216.855 249.843 216.771 250.448 216.771 265.014 216.771 269.667 207.833 269.667 202.041 269.667 198.01 265.464 196.75 262.239 199.519ZM257.426 187.77C259.507 187.77 257.304 192.546 254.694 194.749 252.777 196.342 250.49 197.889 248.494 196.342 248.615 196.136 248.737 195.976 248.822 195.77 251.47 191.318 255.303 187.77 257.426 187.77Z" transform="matrix(1.00087 0 0 1 692 272.031)"/><path d="M186.838 272.611 185.441 272.1 11.8616 208.461 11.8616 77.473 186.838 13.3285 188.234 13.8393 361.814 77.473 361.814 208.461 186.838 272.611ZM19.9833 202.791 186.838 263.959 353.692 202.791 353.692 83.1483 186.838 21.9798 19.9833 83.1483 19.9833 202.791Z" transform="matrix(1.00087 0 0 1 692 272.031)"/><path d="M186.838 285.939 186.088 285.653 0 214.779 0 71.1602 1.35441 70.6447 186.838 0 187.588 0.285878 373.675 71.1602 373.675 214.779 372.321 215.294 186.838 285.939ZM4.21319 211.878 186.838 281.435 369.462 211.878 369.462 74.0612 186.838 4.50844 4.21319 74.0612 4.21319 211.878Z" transform="matrix(1.00087 0 0 1 692 272.031)"/><path d="M56.6695 190.198C56.6695 190.423 56.6835 190.423 56.6835 190.634 56.6835 190.859 56.6554 190.859 56.6554 191.07 56.6554 191.21 56.6273 191.351 56.5429 191.435 56.4586 191.534 56.318 191.548 56.1774 191.548 55.9665 191.548 55.9665 191.59 55.7556 191.59 55.5447 191.59 55.5447 191.576 55.3338 191.576 55.1229 191.576 55.1229 191.562 54.912 191.562 54.7011 191.562 54.7011 191.548 54.4902 191.548 54.2793 191.548 54.2793 191.534 54.0684 191.534 53.8576 191.534 53.8576 191.576 53.6467 191.576 53.4358 191.576 53.4358 191.548 53.2249 191.548 53.014 191.548 53.014 191.534 52.8031 191.534 52.5922 191.534 52.5922 191.59 52.3813 191.59 52.1704 191.59 52.1704 191.548 51.9595 191.548L51.5377 191.548C51.3268 191.548 51.3268 191.534 51.1159 191.534 50.9894 191.534 50.8488 191.604 50.7644 191.688 50.666 191.787 50.652 191.913 50.652 192.054L50.652 192.56C50.652 192.701 50.6801 192.827 50.7644 192.911 50.8629 192.996 50.9894 193.052 51.1159 193.052 51.3409 193.052 51.3409 193.066 51.5658 193.066 51.7908 193.066 51.7908 193.052 52.0157 193.052 52.2266 193.052 52.2266 193.066 52.4516 193.066 52.6765 193.066 52.6765 193.038 52.9015 193.038 53.1265 193.038 53.1265 193.024 53.3373 193.024 53.5623 193.024 53.5623 193.066 53.7873 193.066 54.0122 193.066 54.0122 193.024 54.2372 193.024 54.3637 193.024 54.4902 193.108 54.5746 193.193 54.673 193.277 54.7011 193.404 54.7011 193.544L54.7011 193.98C54.7011 194.191 54.7292 194.191 54.7292 194.416L54.7292 194.852C54.7292 194.978 54.6589 195.105 54.5746 195.189 54.4902 195.273 54.3637 195.358 54.2372 195.358 54.0122 195.358 54.0122 195.316 53.7873 195.316 53.5623 195.316 53.5623 195.358 53.3373 195.358 53.1265 195.358 53.1265 195.33 52.9015 195.33 52.6765 195.33 52.6765 195.358 52.4516 195.358 52.2266 195.358 52.2266 195.33 52.0017 195.33 51.7908 195.33 51.7908 195.344 51.5658 195.344 51.3409 195.344 51.3409 195.33 51.1159 195.33 50.9894 195.33 50.8629 195.4 50.7785 195.484 50.6941 195.569 50.6238 195.695 50.6238 195.822 50.6238 196.075 50.652 196.075 50.652 196.328 50.652 196.454 50.666 196.595 50.7644 196.679 50.8488 196.778 50.9894 196.82 51.1159 196.82L51.5377 196.82C51.7486 196.82 51.7486 196.834 51.9595 196.834 52.1704 196.834 52.1704 196.792 52.3813 196.792L52.8031 196.792C53.014 196.792 53.014 196.848 53.2249 196.848 53.4358 196.848 53.4358 196.806 53.6326 196.806 53.8435 196.806 53.8435 196.82 54.0544 196.82 54.2653 196.82 54.2653 196.834 54.4762 196.834 54.6871 196.834 54.6871 196.792 54.898 196.792 55.1089 196.792 55.1089 196.806 55.3197 196.806 55.5306 196.806 55.5306 196.834 55.7415 196.834L56.1493 196.834C56.2899 196.834 56.4023 196.876 56.4867 196.975 56.571 197.059 56.6413 197.171 56.6413 197.298L56.6413 197.734C56.6413 197.959 56.6273 197.959 56.6273 198.17L56.6273 198.606C56.6273 198.746 56.5851 198.873 56.5008 198.957 56.4164 199.041 56.2899 199.084 56.1493 199.084 55.9384 199.084 55.9384 199.07 55.7275 199.07 55.5025 199.07 55.5025 199.084 55.2916 199.084 55.0807 199.084 55.0807 199.126 54.8558 199.126 54.6449 199.126 54.6449 199.112 54.434 199.112L53.9981 199.112C53.7873 199.112 53.7873 199.098 53.5623 199.098L53.1405 199.098C52.9156 199.098 52.9156 199.098 52.7047 199.098L52.2829 199.098C52.0579 199.098 52.0579 199.098 51.847 199.098 51.6361 199.098 51.6361 199.07 51.4112 199.07 51.2003 199.07 51.2003 199.112 50.9894 199.112 50.7644 199.112 50.7644 199.07 50.5536 199.07 50.3427 199.07 50.3427 199.112 50.1318 199.112 49.9068 199.112 49.9068 199.084 49.6959 199.084 49.485 199.084 49.485 199.098 49.2601 199.098L48.8383 199.098C48.6977 199.098 48.5852 199.041 48.4868 198.957 48.4024 198.859 48.3321 198.746 48.3321 198.606 48.3321 198.381 48.3603 198.381 48.3603 198.17 48.3603 197.945 48.3743 197.945 48.3743 197.72 48.3743 197.495 48.3603 197.495 48.3603 197.284 48.3603 197.059 48.3321 197.059 48.3321 196.834L48.3321 196.398C48.3321 196.173 48.3321 196.173 48.3321 195.948 48.3321 195.737 48.3743 195.737 48.3743 195.512 48.3743 195.288 48.3321 195.288 48.3321 195.063L48.3321 194.627C48.3321 194.402 48.3321 194.402 48.3321 194.191 48.3321 193.966 48.3743 193.966 48.3743 193.741 48.3743 193.516 48.3181 193.516 48.3181 193.305 48.3181 193.08 48.3603 193.08 48.3603 192.855 48.3603 192.644 48.3181 192.644 48.3181 192.419L48.3181 191.969C48.3181 191.759 48.3603 191.759 48.3603 191.534 48.3603 191.309 48.3743 191.309 48.3743 191.098 48.3743 190.873 48.3462 190.873 48.3462 190.648 48.3462 190.437 48.3321 190.437 48.3321 190.212 48.3321 189.987 48.3462 189.987 48.3462 189.762 48.3462 189.636 48.4165 189.523 48.5009 189.439 48.5993 189.354 48.6977 189.256 48.8383 189.256 49.0492 189.256 49.0492 189.284 49.2741 189.284 49.485 189.284 49.485 189.312 49.6959 189.312 49.9209 189.312 49.9209 189.256 50.1318 189.256 50.3567 189.256 50.3567 189.27 50.5676 189.27 50.7785 189.27 50.7785 189.284 51.0035 189.284L51.4252 189.284C51.6502 189.284 51.6502 189.284 51.8611 189.284 52.072 189.284 52.072 189.298 52.2969 189.298 52.5078 189.298 52.5078 189.284 52.7187 189.284 52.9437 189.284 52.9437 189.27 53.1546 189.27L53.5904 189.27C53.8013 189.27 53.8013 189.284 54.0263 189.284 54.2372 189.284 54.2372 189.312 54.4481 189.312 54.673 189.312 54.673 189.298 54.8839 189.298L55.3197 189.298C55.5306 189.298 55.5306 189.27 55.7415 189.27 55.9665 189.27 55.9665 189.256 56.1774 189.256 56.318 189.256 56.4445 189.326 56.5289 189.411 56.6273 189.495 56.6413 189.636 56.6413 189.762 56.6413 189.987 56.6695 189.987 56.6695 190.198Z" transform="matrix(1.00087 0 0 1 692 272.031)"/><path d="M68.6951 195.709C68.7232 195.85 68.7654 196.005 68.7654 196.159 68.7654 196.3 68.7373 196.454 68.7092 196.595 68.681 196.75 68.5967 196.876 68.5404 197.017 68.4842 197.143 68.428 197.284 68.3436 197.411 68.2733 197.537 68.1749 197.65 68.0765 197.762 67.9781 197.86 67.8796 197.987 67.7672 198.085 67.6547 198.17 67.5141 198.254 67.3875 198.338 67.261 198.409 67.1204 198.451 66.9939 198.521 66.8533 198.592 66.7408 198.704 66.6002 198.76 66.4737 198.816 66.319 198.859 66.1784 198.901 66.0378 198.943 65.8832 198.957 65.7426 198.999 65.602 199.027 65.4614 199.084 65.3067 199.112 65.1661 199.14 65.0115 199.154 64.8709 199.182 64.7162 199.196 64.5616 199.154 64.421 199.168 64.2663 199.168 64.1257 199.224 63.9711 199.224 63.8164 199.224 63.6758 199.168 63.5212 199.168 63.3665 199.168 63.2259 199.196 63.0713 199.182 62.9166 199.182 62.776 199.168 62.6213 199.154 62.4667 199.14 62.3261 199.098 62.1855 199.084 62.0308 199.055 61.8762 199.07 61.7356 199.041 61.5809 199.013 61.4263 198.971 61.2857 198.943 61.1451 198.915 61.0045 198.859 60.8639 198.831L60.4281 198.704C60.2734 198.662 60.1187 198.648 59.9782 198.606 59.8376 198.549 59.711 198.465 59.5704 198.409L59.1627 198.24C59.008 198.17 58.8534 198.142 58.7409 198.085 58.6144 198.015 58.5581 197.889 58.53 197.776 58.5019 197.65 58.516 197.523 58.6003 197.411 58.7128 197.228 58.755 197.242 58.8674 197.073 58.994 196.89 58.9659 196.876 59.0924 196.693 59.2189 196.511 59.2471 196.525 59.3595 196.356 59.4439 196.244 59.5423 196.159 59.6688 196.131 59.7954 196.103 59.9219 196.117 60.0485 196.173 60.1609 196.23 60.3015 196.286 60.4562 196.356 60.5827 196.398 60.7374 196.426 60.892 196.483 61.0186 196.525 61.1592 196.581 61.3138 196.623 61.4544 196.665 61.595 196.679 61.7497 196.708 61.8903 196.736 62.0449 196.75 62.1996 196.778 62.3402 196.792 62.4808 196.848 62.6354 196.862 62.776 196.876 62.9307 196.862 63.0853 196.876L63.5212 196.918C63.6758 196.918 63.8164 196.904 63.9711 196.904 64.1257 196.904 64.2804 196.904 64.435 196.89 64.5897 196.89 64.7443 196.904 64.8849 196.89 65.0537 196.862 65.2083 196.848 65.3489 196.82 65.5176 196.778 65.6582 196.75 65.7988 196.708 65.9675 196.651 66.0941 196.553 66.1925 196.483 66.3612 196.37 66.4737 196.258 66.4737 196.131 66.4737 196.033 66.3471 195.948 66.1644 195.864 66.0519 195.808 65.9113 195.766 65.7707 195.709 65.6301 195.681 65.5036 195.597 65.363 195.569 65.2224 195.527 65.0818 195.498 64.9412 195.47 64.8006 195.442 64.66 195.428 64.5194 195.4 64.3788 195.372 64.2241 195.372 64.0976 195.358 63.943 195.33 63.8024 195.288 63.6758 195.273 63.5352 195.245 63.3946 195.245 63.254 195.217 63.1275 195.203 62.9869 195.133 62.8463 195.119 62.7198 195.091 62.5792 195.077 62.4386 195.049 62.298 195.006 62.1574 194.964 62.0308 194.936 61.8903 194.908 61.7497 194.908 61.6091 194.866 61.4685 194.824 61.356 194.739 61.2295 194.697 61.0889 194.655 60.9483 194.627 60.8217 194.57 60.6811 194.514 60.5827 194.43 60.4562 194.36 60.3296 194.289 60.2172 194.219 60.1047 194.135 59.9922 194.05 59.8516 193.994 59.7673 193.896 59.6688 193.783 59.6126 193.657 59.5282 193.53 59.458 193.418 59.3736 193.305 59.3174 193.165 59.2752 193.038 59.2611 192.897 59.2471 192.757 59.2189 192.616 59.1627 192.49 59.1627 192.335 59.1627 192.18 59.2049 192.04 59.233 191.885 59.2611 191.745 59.3314 191.618 59.3876 191.477 59.4439 191.337 59.5282 191.224 59.6126 191.098 59.697 190.971 59.7813 190.859 59.8938 190.746 59.9922 190.634 60.0766 190.521 60.2031 190.437 60.3156 190.339 60.4281 190.254 60.5687 190.17 60.6811 190.1 60.8217 190.029 60.9623 189.973 61.0889 189.903 61.2013 189.804 61.3419 189.748 61.4825 189.692 61.6372 189.678 61.7778 189.622 61.9184 189.579 62.059 189.537 62.1996 189.509 62.3542 189.467 62.4948 189.453 62.6495 189.425 62.7901 189.397 62.9307 189.368 63.0853 189.354 63.2259 189.326 63.3806 189.298 63.5212 189.284 63.6758 189.284 63.8164 189.298 63.9711 189.298 64.1257 189.298 64.2663 189.284 64.4069 189.284 64.5475 189.284 64.6881 189.312 64.8287 189.312L65.2505 189.354C65.4052 189.368 65.5457 189.354 65.6863 189.382 65.841 189.397 65.9816 189.411 66.1081 189.439 66.2628 189.467 66.3893 189.523 66.5299 189.551 66.6705 189.593 66.8252 189.607 66.9517 189.65L67.3594 189.776C67.5141 189.832 67.6266 189.917 67.739 189.959 67.8656 190.015 67.9921 190.071 68.0202 190.198 68.0483 190.31 67.9921 190.437 67.9218 190.549 67.8093 190.732 67.8375 190.76 67.725 190.943 67.6125 191.126 67.6266 191.126 67.5141 191.323L67.2891 191.688C67.1485 191.927 66.8392 192.012 66.5721 191.927 66.4596 191.885 66.319 191.871 66.1503 191.829 66.0238 191.801 65.8832 191.745 65.7285 191.716 65.5879 191.688 65.4473 191.688 65.2927 191.66 65.1521 191.646 65.0115 191.618 64.8568 191.604 64.7162 191.59 64.5616 191.59 64.4069 191.59 64.2663 191.59 64.1257 191.548 63.9711 191.548 63.8164 191.548 63.6618 191.576 63.5212 191.59 63.3665 191.59 63.2119 191.618 63.0713 191.632 62.9025 191.66 62.7479 191.646 62.6073 191.674 62.4526 191.702 62.312 191.773 62.1855 191.829 62.0168 191.885 61.8621 191.927 61.7637 191.998 61.5809 192.096 61.4825 192.223 61.4825 192.335 61.4825 192.447 61.6372 192.504 61.834 192.574 61.9606 192.63 62.0871 192.715 62.2558 192.757 62.3964 192.785 62.5511 192.771 62.7057 192.799L63.1556 192.869C63.3103 192.883 63.4649 192.926 63.6055 192.94 63.7602 192.968 63.9148 192.968 64.0414 192.996 64.196 193.01 64.3366 193.052 64.4772 193.08L64.9271 193.165C65.0677 193.193 65.2083 193.221 65.3489 193.249 65.5036 193.277 65.6442 193.319 65.7848 193.361 65.9254 193.389 66.0659 193.446 66.2066 193.488 66.3612 193.53 66.5018 193.558 66.6424 193.614 66.783 193.671 66.9236 193.699 67.0642 193.755 67.1907 193.825 67.3032 193.924 67.4297 193.994 67.5703 194.078 67.6969 194.149 67.8093 194.233 67.9218 194.331 68.0483 194.416 68.1468 194.528 68.2452 194.627 68.3014 194.767 68.3858 194.894 68.4561 195.02 68.5545 195.133 68.6107 195.273 68.6529 195.414 68.667 195.555 68.6951 195.709Z" transform="matrix(1.00087 0 0 1 692 272.031)"/><path d="M80.2661 189.762C80.2661 189.987 80.2802 189.987 80.2802 190.198L80.2802 190.634C80.2802 190.859 80.2661 190.859 80.2661 191.07 80.2661 191.21 80.2099 191.337 80.1255 191.421 80.0271 191.505 79.9146 191.59 79.774 191.59L79.3241 191.59C79.0992 191.59 79.0992 191.562 78.8742 191.562 78.6493 191.562 78.6493 191.59 78.4384 191.59 78.2134 191.59 78.2134 191.576 77.9885 191.576L77.5386 191.576C77.3136 191.576 77.3136 191.59 77.0887 191.59 76.9621 191.59 76.8496 191.632 76.7512 191.716 76.6669 191.801 76.6106 191.913 76.6106 192.054 76.6106 192.279 76.6247 192.279 76.6247 192.49 76.6247 192.715 76.6106 192.715 76.6106 192.926 76.6106 193.15 76.5966 193.15 76.5966 193.375 76.5966 193.586 76.6247 193.586 76.6247 193.811L76.6247 194.247C76.6247 194.472 76.6106 194.472 76.6106 194.683L76.6106 195.119C76.6106 195.344 76.6106 195.344 76.6106 195.555 76.6106 195.78 76.5966 195.78 76.5966 196.005 76.5966 196.215 76.5825 196.215 76.5825 196.44L76.5825 196.876C76.5825 197.101 76.6106 197.101 76.6106 197.312L76.6106 197.748C76.6106 197.973 76.5825 197.973 76.5825 198.184 76.5825 198.409 76.5966 198.409 76.5966 198.634 76.5966 198.76 76.5403 198.887 76.456 198.971 76.3716 199.055 76.2451 199.112 76.1185 199.112 75.8936 199.112 75.8936 199.14 75.6827 199.14 75.4577 199.14 75.4577 199.126 75.2468 199.126 75.0219 199.126 75.0219 199.14 74.811 199.14 74.6704 199.14 74.572 199.041 74.4876 198.957 74.3892 198.873 74.333 198.76 74.333 198.634L74.333 198.184C74.333 197.973 74.3049 197.973 74.3049 197.748 74.3049 197.523 74.347 197.523 74.347 197.312 74.347 197.087 74.3189 197.087 74.3189 196.876 74.3189 196.651 74.3049 196.651 74.3049 196.426 74.3049 196.215 74.333 196.215 74.333 195.99 74.333 195.78 74.347 195.78 74.347 195.555 74.347 195.344 74.2908 195.344 74.2908 195.119 74.2908 194.894 74.3189 194.894 74.3189 194.683 74.3189 194.458 74.333 194.458 74.333 194.247 74.333 194.022 74.3049 194.022 74.3049 193.797 74.3049 193.586 74.3189 193.586 74.3189 193.361L74.3189 192.926C74.3189 192.715 74.2908 192.715 74.2908 192.49 74.2908 192.265 74.347 192.265 74.347 192.054 74.347 191.913 74.2767 191.787 74.1783 191.702 74.094 191.604 73.9674 191.576 73.8268 191.576 73.6019 191.576 73.6019 191.534 73.3769 191.534L72.913 191.534C72.688 191.534 72.688 191.576 72.4631 191.576 72.2381 191.576 72.2381 191.59 72.0132 191.59 71.7882 191.59 71.7882 191.576 71.5492 191.576 71.3242 191.576 71.3242 191.59 71.0993 191.59 70.9727 191.59 70.8462 191.505 70.7478 191.421 70.6634 191.337 70.6353 191.21 70.6353 191.07 70.6353 190.859 70.6072 190.859 70.6072 190.634 70.6072 190.423 70.5931 190.423 70.5931 190.198 70.5931 189.987 70.6213 189.987 70.6213 189.762 70.6213 189.636 70.6634 189.509 70.7618 189.425 70.8462 189.34 70.9727 189.256 71.0993 189.256 71.3242 189.256 71.3242 189.284 71.5351 189.284 71.7601 189.284 71.7601 189.27 71.971 189.27 72.1819 189.27 72.1819 189.284 72.4068 189.284 72.6177 189.284 72.6177 189.256 72.8427 189.256 73.0536 189.256 73.0536 189.298 73.2785 189.298 73.4894 189.298 73.4894 189.256 73.7144 189.256L74.1361 189.256C74.3611 189.256 74.3611 189.27 74.572 189.27L75.0078 189.27C75.2187 189.27 75.2187 189.284 75.4437 189.284L75.8795 189.284C76.0904 189.284 76.0904 189.284 76.3154 189.284 76.5263 189.284 76.5263 189.27 76.7372 189.27 76.9621 189.27 76.9621 189.256 77.173 189.256 77.398 189.256 77.398 189.284 77.6089 189.284 77.8198 189.284 77.8198 189.256 78.0447 189.256 78.2556 189.256 78.2556 189.298 78.4806 189.298 78.6915 189.298 78.6915 189.27 78.9023 189.27 79.1273 189.27 79.1273 189.256 79.3382 189.256 79.5631 189.256 79.5631 189.298 79.774 189.298 79.9146 189.298 80.0552 189.312 80.1396 189.411 80.2239 189.495 80.2661 189.636 80.2661 189.762Z" transform="matrix(1.00087 0 0 1 692 272.031)"/><path d="M82.9234 197.214C83.064 197.157 83.2186 197.115 83.4014 197.115 83.5701 197.115 83.7248 197.129 83.8794 197.2 84.0481 197.27 84.2028 197.368 84.3153 197.495 84.4559 197.664 84.5402 197.874 84.5402 198.099 84.5402 198.324 84.4559 198.535 84.3153 198.704 84.2028 198.831 84.0481 198.929 83.8794 198.999 83.7248 199.07 83.5701 199.098 83.4014 199.098 83.2186 199.098 83.064 199.084 82.9093 199.013 82.7406 198.943 82.6 198.831 82.4875 198.704 82.3329 198.535 82.2485 198.324 82.2485 198.099 82.2485 197.874 82.3469 197.678 82.4875 197.509 82.6 197.368 82.7406 197.284 82.9234 197.214Z" transform="matrix(1.00087 0 0 1 692 272.031)"/><path d="M299.591 198.057C299.591 198.282 299.577 198.282 299.577 198.493 299.577 198.634 299.506 198.746 299.408 198.831 299.324 198.929 299.211 198.999 299.071 198.999 298.86 198.999 298.86 199.013 298.635 199.013 298.424 199.013 298.424 198.971 298.213 198.971 297.988 198.971 297.988 199.013 297.777 199.013 297.552 199.013 297.552 198.999 297.341 198.999L296.905 198.999C296.695 198.999 296.695 198.985 296.47 198.985 296.259 198.985 296.259 198.957 296.048 198.957 295.823 198.957 295.823 198.985 295.612 198.985L295.176 198.985C294.965 198.985 294.965 198.999 294.74 198.999L294.304 198.999C294.094 198.999 294.094 198.957 293.883 198.957 293.658 198.957 293.658 198.971 293.447 198.971 293.222 198.971 293.222 198.957 293.011 198.957 292.786 198.957 292.786 198.985 292.575 198.985 292.364 198.985 292.364 198.999 292.139 198.999 291.928 198.999 291.928 199.013 291.703 199.013 291.492 199.013 291.492 198.971 291.268 198.971L290.846 198.971C290.621 198.971 290.621 198.999 290.41 198.999 290.269 198.999 290.157 198.915 290.073 198.831 289.988 198.732 289.932 198.634 289.932 198.493 289.932 198.338 289.904 198.338 289.904 198.17 289.904 198.001 289.89 198.001 289.89 197.846 289.89 197.692 289.918 197.551 289.946 197.411 289.974 197.256 290.016 197.115 290.058 196.989 290.115 196.848 290.185 196.722 290.255 196.595 290.326 196.469 290.368 196.328 290.466 196.215 290.551 196.103 290.663 196.005 290.761 195.892L291.099 195.611C291.211 195.527 291.31 195.414 291.436 195.33 291.549 195.245 291.675 195.175 291.802 195.091 291.928 195.02 292.069 194.978 292.195 194.908 292.322 194.838 292.449 194.767 292.589 194.711 292.716 194.641 292.828 194.542 292.955 194.486 293.095 194.416 293.25 194.402 293.376 194.346 293.517 194.289 293.63 194.191 293.77 194.135 293.897 194.078 294.037 194.05 294.178 193.994 294.318 193.938 294.445 193.868 294.586 193.825 294.698 193.769 294.839 193.741 294.979 193.685 295.092 193.628 295.218 193.558 295.345 193.502L295.738 193.333C295.865 193.277 296.006 193.277 296.132 193.221L296.512 193.038C296.652 192.968 296.765 192.897 296.877 192.827 296.99 192.757 297.074 192.616 297.088 192.49 297.116 192.349 297.046 192.223 296.934 192.138 296.821 192.068 296.695 191.969 296.526 191.899 296.399 191.857 296.245 191.787 296.09 191.745 295.949 191.702 295.781 191.716 295.626 191.688 295.471 191.66 295.331 191.618 295.162 191.604 295.007 191.59 294.853 191.618 294.698 191.618 294.543 191.618 294.389 191.576 294.234 191.59 294.079 191.604 293.925 191.66 293.784 191.688 293.63 191.716 293.461 191.716 293.32 191.759 293.166 191.801 293.025 191.871 292.898 191.927 292.786 191.998 292.716 192.082 292.645 192.138 292.575 192.208 292.463 192.251 292.336 192.307 292.238 192.349 292.125 192.405 291.999 192.405L291.563 192.405C291.352 192.405 291.352 192.405 291.127 192.405 290.916 192.405 290.916 192.377 290.691 192.377 290.565 192.377 290.438 192.349 290.354 192.265 290.269 192.166 290.213 192.04 290.227 191.913 290.255 191.759 290.326 191.632 290.382 191.491 290.424 191.351 290.48 191.21 290.551 191.084 290.635 190.957 290.719 190.845 290.818 190.732 290.902 190.62 291 190.493 291.113 190.395 291.225 190.296 291.366 190.24 291.492 190.156 291.605 190.085 291.717 189.987 291.858 189.917 291.985 189.861 292.097 189.776 292.238 189.734 292.364 189.678 292.491 189.622 292.631 189.579 292.758 189.537 292.898 189.495 293.025 189.467 293.166 189.439 293.306 189.425 293.447 189.411 293.587 189.382 293.714 189.368 293.855 189.354 293.995 189.34 294.136 189.326 294.276 189.326 294.417 189.312 294.557 189.284 294.698 189.284L295.134 189.284C295.275 189.298 295.415 189.368 295.556 189.382 295.696 189.397 295.851 189.382 295.992 189.411 296.132 189.425 296.273 189.481 296.399 189.509 296.554 189.537 296.695 189.523 296.835 189.565 296.976 189.607 297.102 189.692 297.229 189.748L297.622 189.917C297.749 189.987 297.876 190.043 298.002 190.114 298.129 190.198 298.269 190.254 298.382 190.339 298.494 190.423 298.579 190.535 298.677 190.634 298.789 190.732 298.874 190.845 298.958 190.957 299.043 191.084 299.141 191.182 299.211 191.309 299.281 191.435 299.366 191.562 299.408 191.688 299.45 191.829 299.492 191.969 299.521 192.11 299.549 192.251 299.521 192.405 299.521 192.546 299.521 192.701 299.535 192.841 299.506 192.982 299.478 193.136 299.408 193.263 299.352 193.389 299.296 193.53 299.239 193.657 299.155 193.783 299.071 193.896 298.972 194.008 298.874 194.121 298.775 194.219 298.663 194.303 298.536 194.402 298.424 194.486 298.311 194.57 298.185 194.655 298.058 194.725 297.96 194.852 297.833 194.922 297.707 194.992 297.566 195.049 297.44 195.119 297.313 195.175 297.187 195.259 297.046 195.316L296.652 195.484C296.512 195.541 296.385 195.597 296.245 195.653L295.837 195.822C295.71 195.878 295.57 195.92 295.429 195.976 295.303 196.033 295.162 196.103 294.993 196.159 294.867 196.215 294.698 196.244 294.557 196.3 294.403 196.37 294.262 196.412 294.122 196.483 293.869 196.595 293.897 196.693 294.164 196.693 294.389 196.693 294.389 196.708 294.614 196.708 294.839 196.708 294.839 196.722 295.064 196.722 295.275 196.722 295.275 196.679 295.5 196.679 295.724 196.679 295.724 196.693 295.949 196.693L296.399 196.693C296.624 196.693 296.624 196.708 296.835 196.708 297.06 196.708 297.06 196.693 297.285 196.693L297.735 196.693C297.96 196.693 297.96 196.722 298.185 196.722 298.41 196.722 298.41 196.708 298.621 196.708 298.846 196.708 298.846 196.679 299.071 196.679 299.211 196.679 299.31 196.778 299.408 196.862 299.492 196.947 299.549 197.059 299.549 197.186 299.549 197.411 299.535 197.411 299.535 197.621 299.535 197.846 299.591 197.846 299.591 198.057Z" transform="matrix(1.00087 0 0 1 692 272.031)"/><path d="M312.666 194.627C312.652 194.781 312.582 194.922 312.554 195.063 312.526 195.203 312.497 195.344 312.455 195.484 312.413 195.625 312.371 195.78 312.315 195.906 312.258 196.047 312.174 196.173 312.104 196.3 312.034 196.426 311.935 196.539 311.851 196.665 311.766 196.792 311.696 196.918 311.612 197.031 311.513 197.143 311.387 197.228 311.274 197.326 311.176 197.439 311.106 197.579 310.993 197.678 310.881 197.776 310.768 197.86 310.642 197.945 310.529 198.043 310.375 198.071 310.248 198.156 310.121 198.226 310.009 198.324 309.882 198.395 309.756 198.465 309.629 198.549 309.489 198.606 309.348 198.662 309.208 198.69 309.067 198.746 308.926 198.788 308.772 198.802 308.631 198.845 308.491 198.887 308.35 198.943 308.209 198.971 308.069 198.999 307.914 198.985 307.773 199.013L307.324 199.055C307.183 199.07 307.042 199.098 306.888 199.098 306.747 199.098 306.592 199.07 306.452 199.055 306.297 199.041 306.157 199.041 306.016 199.013 305.861 198.999 305.721 198.999 305.566 198.971 305.426 198.943 305.285 198.901 305.144 198.859 305.004 198.816 304.849 198.816 304.708 198.76 304.568 198.718 304.441 198.634 304.301 198.577 304.174 198.521 304.02 198.479 303.893 198.409L303.499 198.198C303.373 198.113 303.26 198.029 303.148 197.945 303.021 197.846 302.909 197.762 302.796 197.664 302.684 197.565 302.586 197.453 302.473 197.354 302.375 197.256 302.29 197.115 302.206 197.003 302.107 196.89 301.967 196.806 301.883 196.693 301.798 196.567 301.728 196.44 301.658 196.314 301.587 196.187 301.545 196.033 301.475 195.906 301.419 195.766 301.334 195.639 301.292 195.498 301.25 195.358 301.25 195.203 301.222 195.063 301.194 194.922 301.165 194.767 301.151 194.627 301.137 194.486 301.151 194.331 301.151 194.191 301.151 194.036 301.123 193.896 301.137 193.741 301.165 193.6 301.151 193.446 301.194 193.305 301.222 193.165 301.264 193.01 301.306 192.869 301.348 192.729 301.433 192.602 301.489 192.476 301.545 192.335 301.615 192.208 301.686 192.082 301.756 191.941 301.812 191.801 301.897 191.688 301.981 191.562 302.065 191.449 302.164 191.337 302.262 191.224 302.361 191.112 302.473 191.013 302.571 190.901 302.67 190.788 302.782 190.704 302.895 190.606 303.007 190.507 303.134 190.423 303.246 190.339 303.387 190.254 303.513 190.184 303.626 190.1 303.781 190.071 303.907 190.001 304.048 189.931 304.174 189.861 304.315 189.804 304.441 189.748 304.582 189.692 304.723 189.65 304.863 189.593 304.99 189.537 305.13 189.495 305.271 189.453 305.426 189.453 305.58 189.425 305.721 189.397 305.861 189.326 306.002 189.312 306.143 189.284 306.297 189.298 306.452 189.298 306.592 189.284 306.747 189.242 306.888 189.242 307.042 189.242 307.183 189.27 307.338 189.284 307.478 189.298 307.619 189.34 307.773 189.354 307.914 189.368 308.055 189.397 308.209 189.425 308.35 189.453 308.505 189.453 308.645 189.495L309.067 189.622C309.208 189.678 309.348 189.72 309.475 189.776 309.615 189.832 309.756 189.903 309.882 189.973 310.009 190.043 310.121 190.142 310.248 190.212 310.375 190.296 310.529 190.324 310.656 190.409 310.768 190.507 310.853 190.634 310.965 190.732 311.078 190.831 311.19 190.929 311.288 191.027 311.401 191.126 311.485 191.252 311.57 191.365 311.668 191.477 311.809 191.562 311.893 191.674 311.977 191.801 312.02 191.941 312.09 192.082 312.16 192.208 312.244 192.335 312.301 192.462 312.357 192.602 312.441 192.729 312.483 192.869 312.54 193.01 312.512 193.165 312.54 193.319 312.568 193.46 312.596 193.6 312.61 193.741 312.624 193.896 312.666 194.036 312.666 194.191 312.666 194.331 312.68 194.486 312.666 194.627ZM310.403 194.191C310.403 194.036 310.36 193.896 310.318 193.755 310.29 193.614 310.276 193.46 310.22 193.319 310.15 193.193 310.037 193.08 309.953 192.968 309.868 192.841 309.798 192.715 309.7 192.616 309.601 192.504 309.461 192.433 309.348 192.349 309.236 192.265 309.123 192.166 308.997 192.082 308.87 192.012 308.744 191.927 308.617 191.871 308.476 191.815 308.336 191.773 308.195 191.73 308.055 191.688 307.914 191.674 307.759 191.646 307.619 191.618 307.478 191.604 307.324 191.59 307.183 191.576 307.042 191.562 306.888 191.562 306.747 191.562 306.592 191.534 306.452 191.548 306.297 191.562 306.157 191.59 306.016 191.618 305.861 191.646 305.721 191.702 305.594 191.745 305.44 191.787 305.299 191.829 305.172 191.885 305.032 191.941 304.919 192.04 304.793 192.11 304.666 192.18 304.526 192.237 304.413 192.321 304.301 192.419 304.202 192.532 304.104 192.63 303.991 192.743 303.907 192.855 303.823 192.968 303.738 193.094 303.654 193.207 303.598 193.333 303.542 193.474 303.485 193.614 303.457 193.755 303.429 193.896 303.401 194.036 303.401 194.191 303.401 194.331 303.387 194.486 303.415 194.627 303.443 194.767 303.542 194.894 303.612 195.02 303.668 195.161 303.738 195.288 303.823 195.4 303.907 195.527 303.977 195.653 304.09 195.751 304.188 195.85 304.315 195.92 304.441 196.019 304.554 196.103 304.638 196.23 304.779 196.3 304.905 196.37 305.032 196.426 305.172 196.483 305.299 196.539 305.44 196.609 305.58 196.651 305.721 196.693 305.875 196.708 306.016 196.736 306.157 196.764 306.311 196.764 306.452 196.778 306.592 196.792 306.747 196.806 306.888 196.806 307.042 196.806 307.183 196.82 307.324 196.806 307.478 196.792 307.619 196.764 307.759 196.736 307.914 196.708 308.041 196.651 308.181 196.609 308.322 196.567 308.462 196.511 308.589 196.454 308.73 196.398 308.87 196.342 308.997 196.272 309.123 196.201 309.236 196.103 309.348 196.019 309.461 195.934 309.573 195.836 309.672 195.737 309.784 195.625 309.882 195.527 309.967 195.4 310.051 195.288 310.15 195.175 310.22 195.049 310.276 194.908 310.318 194.767 310.346 194.627 310.389 194.486 310.403 194.331 310.403 194.191Z" transform="matrix(1.00087 0 0 1 692 272.031)"/><path d="M323.919 198.057C323.919 198.282 323.905 198.282 323.905 198.493 323.905 198.634 323.834 198.746 323.736 198.831 323.651 198.929 323.539 198.999 323.398 198.999 323.187 198.999 323.187 199.013 322.963 199.013 322.752 199.013 322.752 198.971 322.541 198.971 322.316 198.971 322.316 199.013 322.105 199.013 321.88 199.013 321.88 198.999 321.669 198.999L321.233 198.999C321.022 198.999 321.022 198.985 320.797 198.985 320.586 198.985 320.586 198.957 320.376 198.957 320.151 198.957 320.151 198.985 319.94 198.985L319.504 198.985C319.293 198.985 319.293 198.999 319.068 198.999L318.632 198.999C318.421 198.999 318.421 198.957 318.21 198.957 317.985 198.957 317.985 198.971 317.775 198.971 317.55 198.971 317.55 198.957 317.339 198.957 317.114 198.957 317.114 198.985 316.903 198.985 316.692 198.985 316.692 198.999 316.467 198.999 316.256 198.999 316.256 199.013 316.031 199.013 315.82 199.013 315.82 198.971 315.595 198.971L315.174 198.971C314.949 198.971 314.949 198.999 314.738 198.999 314.597 198.999 314.485 198.915 314.4 198.831 314.316 198.732 314.26 198.634 314.26 198.493 314.26 198.338 314.232 198.338 314.232 198.17 314.232 198.001 314.217 198.001 314.217 197.846 314.217 197.692 314.246 197.551 314.274 197.411 314.302 197.256 314.344 197.115 314.386 196.989 314.442 196.848 314.513 196.722 314.583 196.595 314.653 196.469 314.695 196.328 314.794 196.215 314.878 196.103 314.991 196.005 315.089 195.892L315.427 195.611C315.539 195.527 315.637 195.414 315.764 195.33 315.876 195.245 316.003 195.175 316.13 195.091 316.256 195.02 316.397 194.978 316.523 194.908 316.65 194.838 316.776 194.767 316.917 194.711 317.043 194.641 317.156 194.542 317.282 194.486 317.423 194.416 317.578 194.402 317.704 194.346 317.845 194.289 317.957 194.191 318.098 194.135 318.224 194.078 318.365 194.05 318.506 193.994 318.646 193.938 318.773 193.868 318.913 193.825 319.026 193.769 319.166 193.741 319.307 193.685 319.42 193.628 319.546 193.558 319.673 193.502L320.066 193.333C320.193 193.277 320.333 193.277 320.46 193.221L320.84 193.038C320.98 192.968 321.093 192.897 321.205 192.827 321.318 192.757 321.402 192.616 321.416 192.49 321.444 192.349 321.374 192.223 321.261 192.138 321.149 192.068 321.022 191.969 320.854 191.899 320.727 191.857 320.572 191.787 320.418 191.745 320.277 191.702 320.108 191.716 319.954 191.688 319.799 191.66 319.659 191.618 319.49 191.604 319.335 191.59 319.181 191.618 319.026 191.618 318.871 191.618 318.717 191.576 318.562 191.59 318.407 191.604 318.253 191.66 318.112 191.688 317.957 191.716 317.789 191.716 317.648 191.759 317.493 191.801 317.353 191.871 317.226 191.927 317.114 191.998 317.043 192.082 316.973 192.138 316.903 192.208 316.79 192.251 316.664 192.307 316.565 192.349 316.453 192.405 316.326 192.405L315.891 192.405C315.68 192.405 315.68 192.405 315.455 192.405 315.244 192.405 315.244 192.377 315.019 192.377 314.892 192.377 314.766 192.349 314.681 192.265 314.597 192.166 314.541 192.04 314.555 191.913 314.583 191.759 314.653 191.632 314.71 191.491 314.752 191.351 314.808 191.21 314.878 191.084 314.963 190.957 315.047 190.845 315.145 190.732 315.23 190.62 315.328 190.493 315.441 190.395 315.553 190.296 315.694 190.24 315.82 190.156 315.933 190.085 316.045 189.987 316.186 189.917 316.312 189.861 316.425 189.776 316.565 189.734 316.692 189.678 316.819 189.622 316.959 189.579 317.086 189.537 317.226 189.495 317.353 189.467 317.493 189.439 317.634 189.425 317.775 189.411 317.915 189.382 318.042 189.368 318.182 189.354 318.323 189.34 318.463 189.326 318.604 189.326 318.745 189.312 318.885 189.284 319.026 189.284L319.462 189.284C319.602 189.298 319.743 189.368 319.883 189.382 320.024 189.397 320.179 189.382 320.319 189.411 320.46 189.425 320.601 189.481 320.727 189.509 320.882 189.537 321.022 189.523 321.163 189.565 321.303 189.607 321.43 189.692 321.557 189.748L321.95 189.917C322.077 189.987 322.203 190.043 322.33 190.114 322.456 190.198 322.597 190.254 322.709 190.339 322.822 190.423 322.906 190.535 323.005 190.634 323.117 190.732 323.202 190.845 323.286 190.957 323.37 191.084 323.469 191.182 323.539 191.309 323.609 191.435 323.694 191.562 323.736 191.688 323.778 191.829 323.82 191.969 323.848 192.11 323.876 192.251 323.848 192.405 323.848 192.546 323.848 192.701 323.862 192.841 323.834 192.982 323.806 193.136 323.736 193.263 323.68 193.389 323.623 193.53 323.567 193.657 323.483 193.783 323.398 193.896 323.3 194.008 323.202 194.121 323.103 194.219 322.991 194.303 322.864 194.402 322.752 194.486 322.639 194.57 322.513 194.655 322.386 194.725 322.288 194.852 322.161 194.922 322.035 194.992 321.894 195.049 321.767 195.119 321.641 195.175 321.514 195.259 321.374 195.316L320.98 195.484C320.84 195.541 320.713 195.597 320.572 195.653L320.165 195.822C320.038 195.878 319.898 195.92 319.757 195.976 319.63 196.033 319.49 196.103 319.321 196.159 319.195 196.215 319.026 196.244 318.885 196.3 318.731 196.37 318.59 196.412 318.449 196.483 318.196 196.595 318.224 196.693 318.492 196.693 318.717 196.693 318.717 196.708 318.941 196.708 319.166 196.708 319.166 196.722 319.391 196.722 319.602 196.722 319.602 196.679 319.827 196.679 320.052 196.679 320.052 196.693 320.277 196.693L320.727 196.693C320.952 196.693 320.952 196.708 321.163 196.708 321.388 196.708 321.388 196.693 321.613 196.693L322.063 196.693C322.288 196.693 322.288 196.722 322.513 196.722 322.738 196.722 322.738 196.708 322.948 196.708 323.173 196.708 323.173 196.679 323.398 196.679 323.539 196.679 323.637 196.778 323.736 196.862 323.82 196.947 323.876 197.059 323.876 197.186 323.876 197.411 323.862 197.411 323.862 197.621 323.862 197.846 323.919 197.846 323.919 198.057Z" transform="matrix(1.00087 0 0 1 692 272.031)"/><path d="M336.994 194.627C336.98 194.781 336.91 194.922 336.882 195.063 336.853 195.203 336.825 195.344 336.783 195.484 336.741 195.625 336.699 195.78 336.642 195.906 336.586 196.047 336.502 196.173 336.432 196.3 336.361 196.426 336.263 196.539 336.179 196.665 336.094 196.792 336.024 196.918 335.94 197.031 335.841 197.143 335.715 197.228 335.602 197.326 335.504 197.439 335.433 197.579 335.321 197.678 335.208 197.776 335.096 197.86 334.969 197.945 334.857 198.043 334.702 198.071 334.576 198.156 334.449 198.226 334.337 198.324 334.21 198.395 334.084 198.465 333.957 198.549 333.816 198.606 333.676 198.662 333.535 198.69 333.395 198.746 333.254 198.788 333.099 198.802 332.959 198.845 332.818 198.887 332.678 198.943 332.537 198.971 332.397 198.999 332.242 198.985 332.101 199.013L331.651 199.055C331.511 199.07 331.37 199.098 331.215 199.098 331.075 199.098 330.92 199.07 330.78 199.055 330.625 199.041 330.484 199.041 330.344 199.013 330.189 198.999 330.049 198.999 329.894 198.971 329.753 198.943 329.613 198.901 329.472 198.859 329.332 198.816 329.177 198.816 329.036 198.76 328.896 198.718 328.769 198.634 328.629 198.577 328.502 198.521 328.347 198.479 328.221 198.409L327.827 198.198C327.701 198.113 327.588 198.029 327.476 197.945 327.349 197.846 327.237 197.762 327.124 197.664 327.012 197.565 326.913 197.453 326.801 197.354 326.702 197.256 326.618 197.115 326.534 197.003 326.435 196.89 326.295 196.806 326.21 196.693 326.126 196.567 326.056 196.44 325.985 196.314 325.915 196.187 325.873 196.033 325.803 195.906 325.746 195.766 325.662 195.639 325.62 195.498 325.578 195.358 325.578 195.203 325.549 195.063 325.521 194.922 325.493 194.767 325.479 194.627 325.465 194.486 325.479 194.331 325.479 194.191 325.479 194.036 325.451 193.896 325.465 193.741 325.493 193.6 325.479 193.446 325.521 193.305 325.549 193.165 325.592 193.01 325.634 192.869 325.676 192.729 325.76 192.602 325.817 192.476 325.873 192.335 325.943 192.208 326.013 192.082 326.084 191.941 326.14 191.801 326.224 191.688 326.309 191.562 326.393 191.449 326.491 191.337 326.59 191.224 326.688 191.112 326.801 191.013 326.899 190.901 326.998 190.788 327.11 190.704 327.223 190.606 327.335 190.507 327.462 190.423 327.574 190.339 327.715 190.254 327.841 190.184 327.954 190.1 328.108 190.071 328.235 190.001 328.375 189.931 328.502 189.861 328.643 189.804 328.769 189.748 328.91 189.692 329.05 189.65 329.191 189.593 329.317 189.537 329.458 189.495 329.599 189.453 329.753 189.453 329.908 189.425 330.049 189.397 330.189 189.326 330.33 189.312 330.47 189.284 330.625 189.298 330.78 189.298 330.92 189.284 331.075 189.242 331.215 189.242 331.37 189.242 331.511 189.27 331.665 189.284 331.806 189.298 331.947 189.34 332.101 189.354 332.242 189.368 332.382 189.397 332.537 189.425 332.678 189.453 332.832 189.453 332.973 189.495L333.395 189.622C333.535 189.678 333.676 189.72 333.802 189.776 333.943 189.832 334.084 189.903 334.21 189.973 334.337 190.043 334.449 190.142 334.576 190.212 334.702 190.296 334.857 190.324 334.983 190.409 335.096 190.507 335.18 190.634 335.293 190.732 335.405 190.831 335.518 190.929 335.616 191.027 335.729 191.126 335.813 191.252 335.897 191.365 335.996 191.477 336.136 191.562 336.221 191.674 336.305 191.801 336.347 191.941 336.418 192.082 336.488 192.208 336.572 192.335 336.628 192.462 336.685 192.602 336.769 192.729 336.811 192.869 336.867 193.01 336.839 193.165 336.867 193.319 336.896 193.46 336.924 193.6 336.938 193.741 336.952 193.896 336.994 194.036 336.994 194.191 336.994 194.331 337.008 194.486 336.994 194.627ZM334.73 194.191C334.73 194.036 334.688 193.896 334.646 193.755 334.618 193.614 334.604 193.46 334.548 193.319 334.477 193.193 334.365 193.08 334.28 192.968 334.196 192.841 334.126 192.715 334.027 192.616 333.929 192.504 333.788 192.433 333.676 192.349 333.563 192.265 333.451 192.166 333.324 192.082 333.198 192.012 333.071 191.927 332.945 191.871 332.804 191.815 332.664 191.773 332.523 191.73 332.382 191.688 332.242 191.674 332.087 191.646 331.947 191.618 331.806 191.604 331.651 191.59 331.511 191.576 331.37 191.562 331.215 191.562 331.075 191.562 330.92 191.534 330.78 191.548 330.625 191.562 330.484 191.59 330.344 191.618 330.189 191.646 330.049 191.702 329.922 191.745 329.767 191.787 329.627 191.829 329.5 191.885 329.36 191.941 329.247 192.04 329.121 192.11 328.994 192.18 328.853 192.237 328.741 192.321 328.629 192.419 328.53 192.532 328.432 192.63 328.319 192.743 328.235 192.855 328.151 192.968 328.066 193.094 327.982 193.207 327.926 193.333 327.869 193.474 327.813 193.614 327.785 193.755 327.757 193.896 327.729 194.036 327.729 194.191 327.729 194.331 327.715 194.486 327.743 194.627 327.771 194.767 327.869 194.894 327.94 195.02 327.996 195.161 328.066 195.288 328.151 195.4 328.235 195.527 328.305 195.653 328.418 195.751 328.516 195.85 328.643 195.92 328.769 196.019 328.882 196.103 328.966 196.23 329.107 196.3 329.233 196.37 329.36 196.426 329.5 196.483 329.627 196.539 329.767 196.609 329.908 196.651 330.049 196.693 330.203 196.708 330.344 196.736 330.484 196.764 330.639 196.764 330.78 196.778 330.92 196.792 331.075 196.806 331.215 196.806 331.37 196.806 331.511 196.82 331.651 196.806 331.806 196.792 331.947 196.764 332.087 196.736 332.242 196.708 332.368 196.651 332.509 196.609 332.65 196.567 332.79 196.511 332.917 196.454 333.057 196.398 333.198 196.342 333.324 196.272 333.451 196.201 333.563 196.103 333.676 196.019 333.788 195.934 333.901 195.836 333.999 195.737 334.112 195.625 334.21 195.527 334.295 195.4 334.379 195.288 334.477 195.175 334.548 195.049 334.604 194.908 334.646 194.767 334.674 194.627 334.716 194.486 334.73 194.331 334.73 194.191Z" transform="matrix(1.00087 0 0 1 692 272.031)"/></g></svg>