<svg width="174" height="134" xmlns="http://www.w3.org/2000/svg" xmlns:xlink="http://www.w3.org/1999/xlink" xml:space="preserve" overflow="hidden"><defs><clipPath id="clip0"><rect x="553" y="477" width="174" height="134"/></clipPath></defs><g clip-path="url(#clip0)" transform="translate(-553 -477)"><path d="M33.4234 65.531 33.4234 65.6706C33.4234 65.7383 33.4082 65.7972 33.3842 65.8518 33.3842 65.9325 33.2969 66.2009 33.1245 66.6548 32.9499 67.1087 32.8648 67.735 32.8648 68.5381L32.8648 74.7074C32.8648 75.0434 32.7993 75.3533 32.6706 75.6392 32.5614 75.8792 32.4065 76.104 32.2036 76.3113 31.7627 76.7652 31.2237 76.9922 30.5821 76.9922L19.8389 76.9922C19.8389 76.8874 19.8542 76.7914 19.8782 76.7107 19.8782 76.6299 19.9655 76.3637 20.1379 75.9098 20.3103 75.4559 20.3975 74.8274 20.3975 74.0265L20.3975 65.8125C20.3975 65.0378 20.2579 64.4158 19.9764 63.9488 19.697 63.4818 19.5574 63.2221 19.5574 63.1676 19.5028 62.9821 19.5028 62.7813 19.5574 62.5675 19.5574 62.4867 19.697 62.2183 19.9764 61.7644 20.2579 61.3105 20.3975 60.6842 20.3975 59.8811L20.3975 47.2197C20.3975 46.4188 20.3103 45.7925 20.1379 45.3364 19.9655 44.8825 19.8782 44.6162 19.8782 44.5355 19.852 44.4547 19.8389 44.3631 19.8389 44.254L30.5778 44.254C31.1473 44.254 31.6514 44.4504 32.0835 44.8454 32.1163 44.8737 32.149 44.9043 32.1795 44.937 32.6335 45.3909 32.8604 45.9256 32.8604 46.5388L32.8604 51.7064C32.8604 52.5094 32.9455 53.1358 33.1201 53.5897 33.2925 54.0458 33.3798 54.312 33.3798 54.3927 33.406 54.4997 33.4191 54.6066 33.4191 54.7135L27.8478 54.7135C27.8478 54.6066 27.863 54.4997 27.887 54.3927 27.9154 54.312 28.0071 54.0458 28.1686 53.5897 28.3279 53.1358 28.4086 52.5094 28.4086 51.7064L28.4086 48.7014 24.8428 48.7014 24.8428 72.5404 28.4086 72.5404 28.4086 68.5337C28.4086 67.7307 28.3279 67.1044 28.1686 66.6505 28.0071 66.1965 27.9154 65.9281 27.887 65.8474 27.8609 65.795 27.8478 65.7339 27.8478 65.6663L27.8478 65.5266 33.4234 65.5266Z" fill="#FFFFFF" transform="matrix(1 0 0 1.0062 553 477.014)"/><path d="M47.4051 76.6692 47.4051 76.99 52.9743 76.99 52.8935 76.6692C52.8695 76.6168 52.756 76.4095 52.5553 76.0494 52.3545 75.6872 52.2148 75.1067 52.1341 74.3058L50.0522 57.7971 51.6147 54.1527C51.7478 53.8603 51.8395 53.5984 51.894 53.3714 51.9464 53.1467 51.9726 52.8433 51.9726 52.4702L51.9333 46.3795C51.8788 45.7663 51.6322 45.2513 51.1914 44.8366 50.7527 44.4242 50.2246 44.2147 49.6092 44.2147L38.914 44.2147 38.914 44.494C38.938 44.5748 39.034 44.841 39.1911 45.2949 39.3526 45.751 39.4334 46.3773 39.4334 47.1782 39.4334 49.3408 39.4399 51.486 39.453 53.6093 39.4661 55.7348 39.4726 57.8778 39.4726 60.0404 39.4203 60.7867 39.2719 61.3694 39.034 61.784 38.7918 62.1965 38.6587 62.4453 38.6325 62.526 38.5801 62.7399 38.5801 62.9384 38.6325 63.1261 38.6608 63.1807 38.794 63.4207 39.034 63.8463 39.2719 64.2762 39.4203 64.8479 39.4726 65.5681L39.4726 74.0221C39.4726 74.7968 39.3919 75.4188 39.2304 75.8858 39.0689 76.3528 38.9773 76.6125 38.9511 76.667L38.9511 76.9878 44.2387 76.9878 44.2387 76.667C44.2103 76.6146 44.158 76.3528 44.0772 75.8858 43.9986 75.4188 43.9572 74.7968 43.9572 74.0221L43.9572 58.9209 45.7597 58.9209 47.643 74.308C47.7521 75.1089 47.7347 75.6894 47.6016 76.0516 47.4706 76.4117 47.4051 76.6168 47.4051 76.6692ZM47.4837 52.2301 46.5235 54.4735 43.9594 54.4735 43.9594 48.5443 47.4837 48.5443 47.4837 52.2301Z" fill="#FFFFFF" transform="matrix(1 0 0 1.0062 553 477.014)"/><path d="M63.5124 65.8125 63.5124 74.0265C63.5124 74.8274 63.5931 75.4559 63.7524 75.9098 63.9139 76.3637 64.0056 76.6299 64.0339 76.7107 64.0601 76.7914 64.0732 76.8852 64.0732 76.9922L58.5019 76.9922C58.5019 76.8874 58.5172 76.7914 58.5412 76.7107 58.5412 76.6299 58.6285 76.3637 58.8009 75.9098 58.9755 75.4559 59.0606 74.8274 59.0606 74.0265L59.0606 65.8125C59.0606 65.0378 58.9209 64.4158 58.6394 63.9488 58.3579 63.4818 58.2204 63.2221 58.2204 63.1676 58.1659 62.9821 58.1659 62.7813 58.2204 62.5675 58.2204 62.4867 58.3579 62.2183 58.6394 61.7644 58.9209 61.3105 59.0606 60.6842 59.0606 59.8811L59.0606 47.2197C59.0606 46.4188 58.9755 45.7925 58.8009 45.3364 58.6285 44.8825 58.5412 44.6162 58.5412 44.5355 58.515 44.4547 58.5019 44.3631 58.5019 44.254L64.0732 44.254C64.0732 44.3609 64.0579 44.4547 64.0339 44.5355 64.0056 44.6162 63.9139 44.8825 63.7524 45.3364 63.5909 45.7925 63.5124 46.4188 63.5124 47.2197L63.5124 59.8811C63.5124 60.6842 63.6455 61.3105 63.9139 61.7644 64.1802 62.2183 64.3285 62.4867 64.3525 62.5675 64.3809 62.7813 64.3809 62.9821 64.3525 63.1676 64.3264 63.2221 64.1802 63.484 63.9139 63.9488 63.6455 64.4158 63.5124 65.0378 63.5124 65.8125Z" fill="#FFFFFF" transform="matrix(1 0 0 1.0062 553 477.014)"/><path d="M90.9564 65.8125 90.9564 74.0265C90.9564 74.8274 91.0372 75.4559 91.1965 75.9098 91.3558 76.3637 91.4496 76.6299 91.4758 76.7107L91.4758 76.9922 85.946 76.9922C85.946 76.8874 85.9591 76.7914 85.9852 76.7107 85.9852 76.6299 86.066 76.3637 86.2253 75.9098 86.3846 75.4559 86.4653 74.8274 86.4653 74.0265L86.4653 59.0802 83.5389 74.0265C83.4058 74.8274 83.3927 75.4559 83.4997 75.9098 83.6066 76.3637 83.6611 76.6299 83.6611 76.7107 83.6611 76.7652 83.6546 76.8176 83.6415 76.8722 83.6284 76.9267 83.6219 76.966 83.6219 76.9922L77.7712 76.9922C77.7712 76.966 77.7647 76.9267 77.7516 76.8722 77.7385 76.8198 77.732 76.7674 77.732 76.7107 77.732 76.6299 77.7865 76.3768 77.8934 75.9512 78.0004 75.5257 78.0004 74.9234 77.8934 74.1487L74.8885 59.0824 74.8885 74.0287C74.8885 74.8296 74.9736 75.458 75.1482 75.912 75.3206 76.3659 75.4079 76.6321 75.4079 76.7128 75.434 76.7936 75.4471 76.8874 75.4471 76.9944L69.9173 76.9944 69.9173 76.7128C69.9457 76.6321 70.0373 76.3659 70.1988 75.912 70.3581 75.458 70.4389 74.8296 70.4389 74.0287L70.4389 65.8147C70.4389 65.04 70.3057 64.418 70.0373 63.951 69.7711 63.484 69.6227 63.2243 69.5987 63.1698 69.5441 62.9843 69.5441 62.7835 69.5987 62.5696 69.6249 62.4889 69.7711 62.2205 70.0373 61.7666 70.3057 61.3127 70.4389 60.6864 70.4389 59.8833L70.4389 47.2218C70.4389 46.4209 70.3581 45.7946 70.1988 45.3386 70.0373 44.8846 69.9457 44.6184 69.9173 44.5377L69.9173 44.2562 77.1711 44.2562 80.6976 66.0525 84.2242 44.2562 91.4758 44.2562 91.4758 44.5377C91.4496 44.6184 91.3558 44.8846 91.1965 45.3386 91.035 45.7946 90.9564 46.4209 90.9564 47.2218L90.9564 59.8833C90.9564 60.6864 91.0895 61.3127 91.3558 61.7666 91.6242 62.2205 91.7704 62.4889 91.7966 62.5696 91.825 62.7835 91.825 62.9843 91.7966 63.1698 91.7682 63.2243 91.6242 63.4862 91.3558 63.951 91.0895 64.4158 90.9564 65.0378 90.9564 65.8125Z" fill="#FFFFFF" transform="matrix(1 0 0 1.0062 553 477.014)"/><path d="M105.901 54.5935 105.901 48.7036 102.374 48.7036 102.374 53.0288 106.701 59.8811 106.701 59.8418 106.78 60.0033 106.939 60.2434C107.393 60.9373 107.862 61.472 108.342 61.8451 108.823 62.2183 109.089 62.4474 109.143 62.526 109.305 62.7399 109.425 62.9406 109.503 63.1261 109.532 63.1807 109.565 63.3662 109.604 63.687 109.643 64.0078 109.73 64.394 109.863 64.8479 110.077 65.2756 110.217 65.6641 110.285 66.0111 110.35 66.358 110.385 66.7858 110.385 67.292L110.385 74.6659C110.385 75.3053 110.158 75.8552 109.704 76.3091 109.25 76.763 108.703 76.99 108.061 76.99L100.207 76.99C99.5654 76.99 99.0177 76.763 98.5638 76.3091 98.1077 75.8552 97.8829 75.3075 97.8829 74.6659L97.8829 71.0193C97.8829 70.2184 97.8022 69.5921 97.6429 69.1361 97.4836 68.6821 97.3897 68.4159 97.3614 68.3352L97.3614 68.0537 102.37 68.0537 102.37 72.5426 105.896 72.5426 105.896 66.2533 105.414 65.4917C104.908 64.7977 104.399 64.2434 103.891 63.8288 103.382 63.4142 103.103 63.1807 103.048 63.1261 102.968 63.0214 102.896 62.921 102.83 62.8271 102.762 62.7333 102.704 62.6329 102.649 62.526L102.649 62.2663C102.649 62.1179 102.629 61.939 102.588 61.7251 102.549 61.5112 102.468 61.2428 102.348 60.922 102.228 60.6034 102.031 60.2412 101.767 59.8418L101.968 60.1233 98.4416 54.635C98.0924 54.0479 97.9047 53.4194 97.8807 52.7517L97.8807 46.541C97.8807 45.8994 98.1077 45.3516 98.5616 44.8977 99.0155 44.4438 99.5632 44.2169 100.205 44.2169L108.059 44.2169C108.7 44.2169 109.248 44.4438 109.702 44.8977 110.156 45.3516 110.383 45.8994 110.383 46.541L110.383 51.6278C110.383 52.4309 110.464 53.0572 110.623 53.5111 110.782 53.9672 110.876 54.2334 110.902 54.3142L110.902 54.5957 105.901 54.5957Z" fill="#FFFFFF" transform="matrix(1 0 0 1.0062 553 477.014)"/><path d="M130.222 62.5282C130.193 62.4496 130.047 62.179 129.781 61.7251 129.513 61.2712 129.379 60.6449 129.379 59.8418L129.379 46.3795C129.325 45.7663 129.087 45.2513 128.659 44.8366 128.234 44.4242 127.712 44.2147 127.097 44.2147L119.204 44.2147C118.562 44.2147 118.023 44.4438 117.58 44.8977 117.139 45.3516 116.919 45.8841 116.919 46.4995L116.919 59.8418C116.919 60.6449 116.779 61.2712 116.498 61.7251 116.218 62.179 116.079 62.4474 116.079 62.5282 116.026 62.742 116.026 62.9406 116.079 63.1283 116.079 63.1829 116.218 63.4425 116.498 63.9095 116.777 64.3787 116.919 64.9985 116.919 65.7732L116.919 74.6681C116.919 75.2813 117.139 75.8181 117.58 76.2698 118.023 76.7238 118.562 76.9485 119.204 76.9485L127.097 76.9485C127.71 76.9485 128.245 76.7238 128.699 76.2698 129.152 75.8159 129.382 75.2813 129.382 74.6681L129.382 65.7732C129.382 64.9985 129.515 64.3787 129.783 63.9095 130.049 63.4425 130.196 63.1829 130.224 63.1283 130.248 62.9406 130.248 62.742 130.222 62.5282ZM124.932 72.5033 121.366 72.5033 121.366 48.6643 124.932 48.6643 124.932 72.5033Z" fill="#FFFFFF" transform="matrix(1 0 0 1.0062 553 477.014)"/><path d="M153.62 65.8125 153.62 74.0265C153.62 74.8274 153.701 75.4559 153.86 75.9098 154.019 76.3637 154.113 76.6299 154.139 76.7107L154.139 76.9922 147.409 76.9922 147.407 76.9878 145.386 69.9631 142.152 58.7376 140.797 54.0327 140.797 74.0265C140.797 74.8274 140.878 75.4559 141.037 75.9098 141.199 76.3637 141.277 76.6299 141.277 76.7107 141.303 76.7914 141.316 76.8852 141.316 76.9922L135.787 76.9922 135.787 76.7107C135.813 76.6299 135.907 76.3637 136.068 75.9098 136.227 75.4559 136.306 74.8274 136.306 74.0265L136.306 65.8125C136.306 65.0378 136.173 64.4158 135.907 63.9488 135.638 63.4818 135.492 63.2221 135.466 63.1676 135.413 62.9821 135.413 62.7813 135.466 62.5675 135.494 62.4867 135.638 62.2183 135.907 61.7644 136.173 61.3105 136.306 60.6842 136.306 59.8811L136.306 47.2197C136.306 46.4188 136.225 45.7925 136.068 45.3364 135.907 44.8825 135.813 44.6162 135.787 44.5355L135.787 44.254 142.436 44.254 142.447 44.2933 145.679 55.5537 147.706 62.6198 149.129 67.5736 149.129 47.2197C149.129 46.4188 149.048 45.7925 148.889 45.3364 148.727 44.8825 148.649 44.6162 148.649 44.5355 148.62 44.4547 148.609 44.3631 148.609 44.254L154.139 44.254 154.139 44.5355C154.113 44.6162 154.019 44.8825 153.86 45.3364 153.698 45.7925 153.62 46.4188 153.62 47.2197L153.62 59.8811C153.62 60.6842 153.753 61.3105 154.019 61.7644 154.288 62.2183 154.434 62.4867 154.46 62.5675 154.488 62.7813 154.488 62.9821 154.46 63.1676 154.434 63.2221 154.288 63.484 154.019 63.9488 153.753 64.4158 153.62 65.0378 153.62 65.8125Z" fill="#FFFFFF" transform="matrix(1 0 0 1.0062 553 477.014)"/><path d="M63.0148 34.7764C63.1021 34.6237 63.1501 34.5407 63.1567 34.5233 63.1654 34.4622 63.1654 34.3967 63.1567 34.3269 63.1479 34.3007 63.0999 34.2134 63.0148 34.0672 62.9275 33.9188 62.8839 33.7159 62.8839 33.4562L62.8839 29.3426C62.8839 29.0829 62.9101 28.8778 62.9624 28.7316 63.0148 28.5832 63.0454 28.4981 63.0519 28.4719L63.0519 28.3802 60.6951 28.3802 59.5494 35.4617 58.4037 28.3802 56.0469 28.3802 56.0469 28.4719C56.0556 28.4981 56.0862 28.5854 56.1364 28.7316 56.1887 28.88 56.2149 29.0829 56.2149 29.3426L56.2149 33.4562C56.2149 33.7159 56.1713 33.921 56.0862 34.0672 55.9989 34.2156 55.9509 34.3007 55.9421 34.3269 55.9247 34.3967 55.9247 34.4622 55.9421 34.5233 55.9509 34.5407 55.9989 34.6237 56.0862 34.7764 56.1735 34.9292 56.2149 35.13 56.2149 35.3831L56.2149 38.052C56.2149 38.3117 56.1887 38.5168 56.1364 38.663 56.0862 38.8114 56.0534 38.8965 56.0469 38.9227L56.0469 39.0144 57.8429 39.0144C57.8429 38.9795 57.8385 38.9489 57.8298 38.9227 57.8298 38.8965 57.8014 38.8092 57.7447 38.663 57.6879 38.5146 57.6596 38.3117 57.6596 38.052L57.6596 33.1965 58.6372 38.0913C58.6721 38.3422 58.6721 38.5386 58.6372 38.6761 58.6023 38.8158 58.5848 38.8965 58.5848 38.9227 58.5848 38.9402 58.587 38.9576 58.5914 38.9751 58.5958 38.9925 58.5979 39.0056 58.5979 39.0144L60.4987 39.0144C60.4987 39.0056 60.5009 38.9925 60.5052 38.9751 60.5096 38.9576 60.5118 38.9402 60.5118 38.9227 60.5118 38.8965 60.4943 38.8092 60.4594 38.663 60.4245 38.5146 60.4289 38.3117 60.4725 38.052L61.424 33.1965 61.424 38.052C61.424 38.3117 61.3978 38.5168 61.3454 38.663 61.293 38.8114 61.2668 38.8965 61.2668 38.9227 61.2581 38.9489 61.2537 38.9795 61.2537 39.0144L63.0497 39.0144 63.0497 38.9227C63.041 38.8965 63.0126 38.8092 62.9603 38.663 62.9079 38.5146 62.8817 38.3117 62.8817 38.052L62.8817 35.3831C62.8839 35.13 62.9275 34.9292 63.0148 34.7764Z" fill="#FFFFFF" transform="matrix(1 0 0 1.0062 553 477.014)"/><path d="M69.4459 34.3138C69.4372 34.2876 69.3892 34.2003 69.3041 34.0541 69.2168 33.9057 69.1731 33.7028 69.1731 33.4431L69.1731 29.0698C69.1557 28.8712 69.0771 28.7032 68.9397 28.5679 68.8 28.4326 68.6298 28.365 68.4312 28.365L65.867 28.365C65.6597 28.365 65.483 28.4392 65.3389 28.5854 65.1971 28.7338 65.1229 28.9083 65.1229 29.1069L65.1229 33.4409C65.1229 33.7006 65.0771 33.9057 64.9854 34.0519 64.8959 34.2003 64.8479 34.2854 64.8479 34.3116 64.8305 34.3814 64.8305 34.4469 64.8479 34.508 64.8479 34.5255 64.8937 34.6106 64.9854 34.7612 65.0771 34.9139 65.1229 35.1147 65.1229 35.3678L65.1229 38.2571C65.1229 38.4557 65.1949 38.6303 65.3389 38.7765 65.483 38.9249 65.6575 38.9991 65.867 38.9991L68.4312 38.9991C68.6298 38.9991 68.8044 38.9249 68.9527 38.7765 69.1011 38.6281 69.1731 38.4557 69.1731 38.2571L69.1731 35.3678C69.1731 35.1169 69.2168 34.9139 69.3041 34.7612 69.3892 34.6106 69.4394 34.5255 69.4459 34.508 69.4547 34.4513 69.4547 34.3858 69.4459 34.3138ZM67.7263 37.5566 66.5675 37.5566 66.5675 29.8096 67.7263 29.8096 67.7263 37.5566Z" fill="#FFFFFF" transform="matrix(1 0 0 1.0062 553 477.014)"/><path d="M71.0215 28.3781 71.0215 30.006C71.0564 30.006 71.0914 30.0017 71.1263 29.9929 71.1437 29.9929 71.2267 29.9646 71.3772 29.9078 71.5256 29.8511 71.7308 29.8227 71.9948 29.8227L72.3505 29.8227 72.3505 33.454C72.3505 33.7137 72.3069 33.9188 72.2196 34.065 72.1323 34.2134 72.0843 34.2985 72.0756 34.3247 72.0581 34.3945 72.0581 34.46 72.0756 34.5211 72.0843 34.5386 72.1323 34.6215 72.2196 34.7743 72.3069 34.927 72.3505 35.1278 72.3505 35.3809L72.3352 38.0498C72.3352 38.3095 72.3069 38.5146 72.2501 38.6608 72.1934 38.8092 72.165 38.8943 72.165 38.9205 72.1563 38.9467 72.1519 38.9773 72.1519 39.0122L73.9741 39.0122C73.9741 38.9773 73.9697 38.9467 73.9588 38.9205 73.9588 38.8943 73.9283 38.8071 73.8694 38.6608 73.8083 38.5125 73.7799 38.3095 73.7799 38.0498L73.7799 35.3809C73.7799 35.13 73.8235 34.927 73.9086 34.7743 73.9959 34.6215 74.0439 34.5386 74.0527 34.5211 74.0614 34.46 74.0614 34.3945 74.0527 34.3247 74.0439 34.2985 73.9959 34.2112 73.9086 34.065 73.8214 33.9166 73.7799 33.7137 73.7799 33.454L73.7799 29.8227 74.1356 29.8227C74.3975 29.8227 74.6048 29.8511 74.7532 29.9078 74.9016 29.9646 74.9845 29.9929 75.002 29.9929 75.0369 30.0017 75.0718 30.006 75.1067 30.006L75.1067 28.3781 71.0215 28.3781Z" fill="#FFFFFF" transform="matrix(1 0 0 1.0062 553 477.014)"/><path d="M81.3698 34.3138C81.361 34.2876 81.313 34.2003 81.2279 34.0541 81.1406 33.9057 81.097 33.7028 81.097 33.4431L81.097 29.0698C81.0795 28.8712 81.001 28.7032 80.8635 28.5679 80.7238 28.4326 80.5558 28.365 80.3572 28.365L77.7909 28.365C77.5836 28.365 77.4068 28.4392 77.265 28.5854 77.1209 28.7338 77.0489 28.9083 77.0489 29.1069L77.0489 33.4409C77.0489 33.7006 77.0031 33.9057 76.9114 34.0519 76.8198 34.2003 76.7739 34.2854 76.7739 34.3116 76.7565 34.3814 76.7565 34.4469 76.7739 34.508 76.7739 34.5255 76.8198 34.6106 76.9114 34.7612 77.0009 34.9139 77.0489 35.1147 77.0489 35.3678L77.0489 38.2571C77.0489 38.4557 77.1209 38.6303 77.265 38.7765 77.4068 38.9249 77.5836 38.9991 77.7909 38.9991L80.3572 38.9991C80.5558 38.9991 80.7304 38.9249 80.8766 38.7765 81.0228 38.6281 81.097 38.4557 81.097 38.2571L81.097 35.3678C81.097 35.1169 81.1406 34.9139 81.2279 34.7612 81.3152 34.6106 81.3632 34.5255 81.3698 34.508 81.3785 34.4513 81.3785 34.3858 81.3698 34.3138ZM79.6523 37.5566 78.4936 37.5566 78.4936 29.8096 79.6523 29.8096 79.6523 37.5566Z" fill="#FFFFFF" transform="matrix(1 0 0 1.0062 553 477.014)"/><path d="M85.9263 38.9096 85.9263 39.0144 87.7354 39.0144 87.7092 38.9096C87.7005 38.8922 87.6634 38.8245 87.5979 38.7067 87.5325 38.591 87.4866 38.4012 87.4605 38.1415L86.784 32.7775 87.2924 31.5925C87.3361 31.4965 87.3666 31.4136 87.3819 31.3394 87.3994 31.2652 87.4081 31.167 87.4081 31.047L87.395 29.0676C87.3775 28.8691 87.2968 28.701 87.1549 28.5657 87.0109 28.4304 86.8407 28.3628 86.6399 28.3628L83.1658 28.3628 83.1658 28.4544C83.1745 28.4806 83.2051 28.5679 83.2574 28.7141 83.3098 28.8625 83.336 29.0655 83.336 29.3252 83.336 30.0278 83.3382 30.724 83.3425 31.4136 83.3469 32.1032 83.3491 32.7993 83.3491 33.5042 83.3316 33.7464 83.2836 33.9363 83.2051 34.0716 83.1287 34.2069 83.0828 34.2854 83.0763 34.3116 83.0588 34.3814 83.0588 34.4469 83.0763 34.508 83.085 34.5255 83.1287 34.604 83.2051 34.7415 83.2836 34.8812 83.3316 35.0667 83.3491 35.3002L83.3491 38.0476C83.3491 38.2986 83.3229 38.5015 83.2705 38.6521 83.2181 38.8049 83.1876 38.8878 83.1789 38.9074L83.1789 39.0122 84.8985 39.0122 84.8985 38.9074C84.8898 38.89 84.8723 38.8049 84.8461 38.6521 84.8199 38.5015 84.8068 38.2986 84.8068 38.0476L84.8068 33.1397 85.3917 33.1397 86.0027 38.1393C86.0376 38.399 86.0333 38.5888 85.9896 38.7045 85.9482 38.8267 85.9263 38.8922 85.9263 38.9096ZM85.9525 30.9684 85.6405 31.6973 84.8068 31.6973 84.8068 29.7703 85.9525 29.7703 85.9525 30.9684Z" fill="#FFFFFF" transform="matrix(1 0 0 1.0062 553 477.014)"/><path d="M92.3051 35.3373C92.3051 35.3591 92.3094 35.3787 92.3182 35.3962 92.3269 35.4224 92.3574 35.5097 92.4076 35.6559 92.46 35.8043 92.4862 36.0072 92.4862 36.2669L92.4862 37.5675 91.3274 37.5675 91.3274 29.8227 92.4862 29.8227 92.4862 30.8004C92.4862 31.06 92.46 31.2652 92.4076 31.4114 92.3574 31.5598 92.3247 31.6449 92.3182 31.6711 92.3094 31.706 92.3051 31.7409 92.3051 31.7758L94.1142 31.7758C94.1142 31.7409 94.1098 31.706 94.1011 31.6711 94.1011 31.6449 94.0727 31.5576 94.016 31.4114 93.9592 31.263 93.9308 31.06 93.9308 30.8004L93.9308 29.1222C93.9308 28.9236 93.8566 28.749 93.7104 28.6006 93.5642 28.4523 93.3896 28.3802 93.1911 28.3802L89.7016 28.3802C89.7016 28.4152 89.706 28.4457 89.7147 28.4719 89.7147 28.4981 89.7431 28.5854 89.7998 28.7316 89.8566 28.88 89.8849 29.0829 89.8849 29.3426L89.8849 33.4562C89.8849 33.7159 89.8391 33.921 89.7475 34.0672 89.6558 34.2156 89.61 34.3007 89.61 34.3269 89.5925 34.3967 89.5925 34.4622 89.61 34.5233 89.61 34.5407 89.6558 34.6237 89.7475 34.7764 89.8369 34.9292 89.8849 35.13 89.8849 35.3831L89.8849 38.052C89.8849 38.3117 89.8566 38.5168 89.7998 38.663 89.7431 38.8114 89.7147 38.8965 89.7147 38.9227 89.706 38.9489 89.7016 38.9795 89.7016 39.0144L93.1911 39.0144C93.3984 39.0144 93.5751 38.9402 93.7192 38.7918 93.861 38.6434 93.933 38.471 93.933 38.2724L93.933 36.2669C93.933 36.0072 93.9614 35.8021 94.0181 35.6559 94.0749 35.5075 94.1032 35.4224 94.1032 35.3962 94.112 35.3787 94.1163 35.3591 94.1163 35.3373L94.1163 35.2914 92.3072 35.2914 92.3072 35.3373Z" fill="#FFFFFF" transform="matrix(1 0 0 1.0062 553 477.014)"/><path d="M98.1491 28.3519C98.1491 28.3693 98.1404 28.4042 98.123 28.4566 98.123 28.4741 98.1273 28.5439 98.1361 28.6639 98.1448 28.7861 98.123 28.9454 98.0706 29.1462L97.7192 30.7327 97.4072 29.3273C97.3286 29.0676 97.2937 28.8625 97.3024 28.7163 97.3112 28.5679 97.3155 28.4828 97.3155 28.4566L97.2893 28.3519 95.5588 28.3519C95.5588 28.3868 95.5719 28.4217 95.5981 28.4566 95.6068 28.4741 95.6439 28.5352 95.7094 28.6465 95.7748 28.7556 95.836 28.904 95.8992 29.096L95.9625 29.3295 96.9925 33.6264C96.9664 33.825 96.9184 33.9821 96.8507 34.0956 96.7809 34.209 96.7416 34.2767 96.7329 34.3029 96.7154 34.3727 96.7154 34.4382 96.7329 34.4993 96.7416 34.5167 96.7896 34.6018 96.8747 34.7524 96.962 34.9052 97.0056 35.1059 97.0056 35.3591L97.0056 38.0411C97.0056 38.292 96.9773 38.495 96.9205 38.6456 96.8638 38.7983 96.8354 38.8813 96.8354 38.9009 96.8267 38.9358 96.8223 38.9707 96.8223 39.0056L98.6314 39.0056C98.6314 38.9707 98.6271 38.9358 98.6183 38.9009 98.6183 38.8834 98.59 38.7983 98.5332 38.6456 98.4765 38.495 98.4481 38.292 98.4481 38.0411L98.4481 35.3591C98.4481 35.1081 98.4918 34.9052 98.579 34.7524 98.6663 34.6018 98.7143 34.5167 98.7209 34.4993 98.7296 34.4382 98.7296 34.3727 98.7209 34.3029 98.7209 34.2767 98.6838 34.2069 98.6096 34.0956 98.5354 33.9821 98.4852 33.8271 98.459 33.6264 98.5463 33.3034 98.6358 32.9499 98.7274 32.5593 98.8169 32.1686 98.9086 31.7693 99.0002 31.3612 99.0897 30.9531 99.1792 30.5538 99.2665 30.1631 99.3538 29.7725 99.4454 29.4168 99.5414 29.096 99.6025 28.904 99.6658 28.7556 99.7291 28.6465 99.7946 28.5374 99.8317 28.4741 99.8404 28.4566 99.8578 28.4042 99.8666 28.3693 99.8666 28.3519L98.1491 28.3519Z" fill="#FFFFFF" transform="matrix(1 0 0 1.0062 553 477.014)"/><path d="M104.048 35.3373C104.048 35.3591 104.052 35.3787 104.061 35.3962 104.07 35.4224 104.1 35.5097 104.153 35.6559 104.205 35.8043 104.231 36.0072 104.231 36.2669L104.231 37.5675 103.072 37.5675 103.072 29.8227 104.231 29.8227 104.231 30.8004C104.231 31.06 104.205 31.2652 104.153 31.4114 104.1 31.5598 104.07 31.6449 104.061 31.6711 104.052 31.706 104.048 31.7409 104.048 31.7758L105.857 31.7758C105.857 31.7409 105.853 31.706 105.844 31.6711 105.844 31.6449 105.815 31.5576 105.759 31.4114 105.702 31.263 105.674 31.06 105.674 30.8004L105.674 29.1222C105.674 28.9236 105.599 28.749 105.453 28.6006 105.307 28.4523 105.13 28.3802 104.932 28.3802L101.442 28.3802C101.442 28.4152 101.447 28.4457 101.455 28.4719 101.455 28.4981 101.484 28.5854 101.54 28.7316 101.597 28.88 101.625 29.0829 101.625 29.3426L101.625 33.4562C101.625 33.7159 101.58 33.921 101.488 34.0672 101.399 34.2156 101.351 34.3007 101.351 34.3269 101.333 34.3967 101.333 34.4622 101.351 34.5233 101.351 34.5407 101.396 34.6237 101.488 34.7764 101.58 34.9292 101.625 35.13 101.625 35.3831L101.625 38.052C101.625 38.3117 101.597 38.5168 101.54 38.663 101.484 38.8114 101.455 38.8965 101.455 38.9227 101.447 38.9489 101.442 38.9795 101.442 39.0144L104.932 39.0144C105.141 39.0144 105.316 38.9402 105.46 38.7918 105.604 38.6434 105.676 38.471 105.676 38.2724L105.676 36.2669C105.676 36.0072 105.704 35.8021 105.761 35.6559 105.818 35.5075 105.846 35.4224 105.846 35.3962 105.855 35.3787 105.859 35.3591 105.859 35.3373L105.859 35.2914 104.05 35.2914 104.05 35.3373Z" fill="#FFFFFF" transform="matrix(1 0 0 1.0062 553 477.014)"/><path d="M111.963 38.6565C111.91 38.5059 111.884 38.303 111.884 38.052L111.884 37.5697 109.281 37.5697 109.281 35.37C109.281 35.119 109.324 34.9161 109.41 34.7633 109.497 34.6128 109.541 34.5277 109.541 34.5102 109.549 34.4491 109.549 34.3836 109.541 34.3138 109.541 34.2876 109.497 34.2003 109.41 34.0541 109.322 33.9057 109.281 33.7028 109.281 33.4431L109.281 29.3426C109.281 29.0829 109.307 28.8778 109.359 28.7316 109.41 28.5832 109.436 28.4981 109.436 28.4719 109.444 28.437 109.449 28.4021 109.449 28.3671L107.653 28.3671 107.653 28.4719C107.662 28.4981 107.692 28.5854 107.745 28.7316 107.797 28.88 107.823 29.0829 107.823 29.3426L107.823 33.4431C107.823 33.7028 107.779 33.9079 107.692 34.0541 107.605 34.2025 107.557 34.2876 107.55 34.3138 107.533 34.3836 107.533 34.4491 107.55 34.5102 107.559 34.5277 107.607 34.6128 107.692 34.7633 107.779 34.9161 107.823 35.1169 107.823 35.37L107.823 38.052C107.823 38.303 107.797 38.5059 107.745 38.6565 107.692 38.8092 107.662 38.8922 107.653 38.9118L107.653 39.0166 112.054 39.0166 112.054 38.9118C112.044 38.8922 112.015 38.8092 111.963 38.6565Z" fill="#FFFFFF" transform="matrix(1 0 0 1.0062 553 477.014)"/><path d="M117.104 29.8227C117.364 29.8227 117.567 29.8489 117.715 29.9013 117.864 29.9536 117.949 29.9842 117.975 29.9929 117.984 30.0017 118.005 30.006 118.04 30.006L118.067 30.006 118.067 28.3781 113.835 28.3781C113.835 28.413 113.84 28.4435 113.848 28.4697 113.848 28.4959 113.877 28.5832 113.933 28.7294 113.99 28.8778 114.019 29.0807 114.019 29.3404L114.019 33.454C114.019 33.7137 113.973 33.9188 113.881 34.065 113.789 34.2134 113.744 34.2985 113.744 34.3247 113.726 34.3945 113.726 34.46 113.744 34.5211 113.744 34.5386 113.789 34.6215 113.881 34.7743 113.973 34.927 114.019 35.1278 114.019 35.3809L114.019 38.0498C114.019 38.3095 113.99 38.5146 113.933 38.6608 113.877 38.8092 113.848 38.8943 113.848 38.9205 113.84 38.9467 113.835 38.9773 113.835 39.0122L118.067 39.0122 118.067 37.3842 118.04 37.3842C118.032 37.3842 118.021 37.3864 118.008 37.3908 117.995 37.3951 117.984 37.3973 117.975 37.3973 117.949 37.3973 117.861 37.4257 117.715 37.4824 117.567 37.5392 117.364 37.5675 117.104 37.5675L115.463 37.5675 115.463 33.1943 115.998 33.1943C116.257 33.1943 116.46 33.2227 116.609 33.2794 116.757 33.3361 116.845 33.3645 116.871 33.3645 116.906 33.3732 116.941 33.3776 116.973 33.3776L116.973 31.5685C116.938 31.5685 116.903 31.5729 116.871 31.5816 116.845 31.5816 116.757 31.61 116.609 31.6667 116.463 31.7235 116.257 31.7518 115.998 31.7518L115.463 31.7518 115.463 29.8249 117.104 29.8249Z" fill="#FFFFFF" transform="matrix(1 0 0 1.0062 553 477.014)"/><path d="M71.1459 86.2078C70.7509 86.6247 68.7389 88.5538 66.9429 90.2516 65.579 91.5413 64.3373 92.6979 64.0208 92.9576 63.5495 93.37 63.0999 93.7846 62.9494 93.6166 62.7988 93.466 63.3051 92.4316 63.5691 91.9253 64.3962 90.4021 65.3542 88.5974 65.3542 88.5974L63.8877 88.6171 59.8265 88.6171C59.5429 88.6171 59.281 88.748 59.15 88.9924L58.4365 90.1774C58.3601 90.3083 58.3601 90.4785 58.4365 90.6095 58.5106 90.7404 58.6438 90.8342 58.7922 90.8342L61.0857 90.8342C59.5429 92.7328 57.3257 94.8758 54.6742 94.8758 51.4969 94.8758 51.5536 91.4169 54.1483 87.2051 56.743 82.9934 60.1452 81.0184 61.6116 81.0184 63.4906 81.0184 63.0978 83.707 60.2586 85.8892 60.2586 85.8892 61.4982 87.1309 62.4016 86.5286 65.5048 84.4599 65.7863 79.3468 61.5723 79.3468 59.4294 79.3468 54.8423 80.7391 50.9862 86.1533 45.967 93.2042 49.1619 97.8851 53.4675 97.8851 55.3093 97.8851 57.0202 97.0951 58.5259 95.9494 58.0742 97.2653 58.6394 97.8851 59.6716 97.8851 60.4616 97.8851 61.4763 97.4355 63.113 95.8927 63.5124 95.513 64.2456 94.7906 65.1142 93.9265 67.5081 91.5435 70.943 88.0759 71.3292 87.6765 71.5431 87.467 71.5038 85.8325 71.1459 86.2078Z" fill="#FFFFFF" transform="matrix(1 0 0 1.0062 553 477.014)"/><path d="M84.0932 86.7163C84.0932 86.6879 84.091 86.6618 84.0889 86.6356 84.0649 86.2297 83.9645 85.8914 83.7703 86.0856 83.5651 86.3017 82.9323 86.9193 82.1205 87.7027 80.1477 89.6034 77.1144 92.4753 76.5906 92.9052 76.0975 93.3242 75.6588 93.741 75.4886 93.5708 75.3358 93.418 75.8509 92.3727 76.1345 91.8621 76.9529 90.3214 79.6676 85.2695 79.6676 85.2695L76.6474 85.2891C76.6474 85.2891 76.1913 86.1642 75.5257 87.3972 75.2966 86.2755 74.5 85.2695 73.4176 85.2695 71.8137 85.2695 69.5114 86.5286 66.9451 90.2516 66.836 90.4087 66.7268 90.5724 66.6155 90.7404 65.8518 91.9013 65.3673 92.9794 65.1229 93.9243 64.5031 96.3204 65.4284 97.8829 67.2811 97.8829 68.5927 97.8829 69.9413 96.9533 71.063 95.8316 70.5502 97.237 71.1197 97.8829 72.1825 97.8829 72.9812 97.8829 74.0243 97.4268 75.6588 95.8709 76.918 94.675 81.4374 90.1403 83.2531 88.305 83.6284 87.9253 83.8881 87.6612 83.9798 87.5674 84.0649 87.4735 84.1085 87.0807 84.0932 86.7163ZM73.3762 91.1572C72.1607 93.2085 70.3756 94.8801 69.387 94.8801 68.4181 94.8801 68.6079 93.2085 69.8235 91.1572 71.0586 89.1059 72.8459 87.4343 73.8323 87.4343 74.8034 87.4343 74.6135 89.1059 73.3762 91.1572Z" fill="#FFFFFF" transform="matrix(1 0 0 1.0062 553 477.014)"/><path d="M92.7568 86.0856C92.3662 86.4959 90.4218 88.3683 88.6432 90.0552 87.2204 91.406 85.9023 92.6368 85.575 92.9074 85.1014 93.3264 84.6453 93.7432 84.4926 93.573 84.3398 93.4202 84.8352 92.3749 85.1189 91.8642 85.9351 90.3236 86.0682 90.2297 86.5439 89.3176 87.8162 86.8843 85.9351 87.8554 84.4729 87.0175 84.3202 86.9323 84.198 86.8342 84.0932 86.7185 84.0801 86.7032 84.0692 86.6901 84.0561 86.6748 84.067 86.6618 84.0801 86.6508 84.091 86.6377 85.2171 85.4157 86.0987 84.1609 85.1014 83.5215 84.1696 82.9126 82.5176 82.6464 81.4156 84.0147 80.2088 85.5357 81.1734 86.9978 82.1205 87.7027 82.2623 87.8074 82.4042 87.8969 82.5373 87.9667 82.7228 88.0584 83.0261 88.137 83.2531 88.305 83.5826 88.5472 83.7572 88.9837 83.1832 89.9417 82.2514 91.4998 81.2083 93.5708 80.427 94.9958 79.3643 96.9707 79.9142 97.8829 81.169 97.8829 81.9481 97.8829 83.0108 97.4268 84.6453 95.8709 85.0578 95.4824 85.8129 94.7448 86.7032 93.861 89.1299 91.454 92.5779 87.9711 92.9663 87.5696 93.1561 87.3579 93.1365 85.7059 92.7568 86.0856Z" fill="#FFFFFF" transform="matrix(1 0 0 1.0062 553 477.014)"/><path d="M105.335 86.0856C104.849 86.5985 101.948 89.3765 99.9648 91.2401 99.081 92.0694 98.3805 92.7175 98.1535 92.9052 97.6581 93.3242 97.2239 93.741 97.0515 93.5708 96.8987 93.418 97.4137 92.3727 97.6974 91.8621 98.5158 90.3214 101.233 85.2695 101.233 85.2695L98.2103 85.2891C98.2103 85.2891 97.7542 86.1642 97.0908 87.3972 96.8616 86.2755 96.0651 85.2695 94.9827 85.2695 93.4071 85.2695 91.1572 86.4828 88.6454 90.0552 88.4905 90.2756 88.3355 90.5025 88.1806 90.7404 87.4343 91.8773 86.9542 92.9292 86.7054 93.861 86.0529 96.2942 86.9782 97.8851 88.8462 97.8851 90.1577 97.8851 91.5064 96.9555 92.6259 95.8338 92.113 97.2391 92.6826 97.8851 93.7453 97.8851 94.5441 97.8851 95.5894 97.429 97.2239 95.873 97.5359 95.5763 98.0509 95.0722 98.6751 94.4546 101.082 92.0737 105.121 88.0082 105.545 87.5696 105.732 87.3579 105.715 85.7059 105.335 86.0856ZM94.9412 91.1572C93.7235 93.2085 91.9384 94.8801 90.9521 94.8801 89.9831 94.8801 90.173 93.2085 91.3885 91.1572 92.6237 89.1059 94.4088 87.4343 95.3973 87.4343 96.3662 87.4343 96.1764 89.1059 94.9412 91.1572Z" fill="#FFFFFF" transform="matrix(1 0 0 1.0062 553 477.014)"/><path d="M117.456 86.0856C116.214 87.2859 114.588 88.8353 112.882 90.4065 111.454 91.7202 109.968 93.047 108.602 94.1971 110.902 89.9046 113.333 85.2673 113.333 85.2673L110.33 85.2673 109.211 87.4343C109.002 86.2929 108.203 85.2673 107.103 85.2673 105.412 85.2673 102.981 86.6356 100.281 90.7382 100.17 90.9062 100.065 91.0743 99.9648 91.2401 99.2512 92.4273 98.8344 93.5162 98.6751 94.4502 98.3128 96.5452 99.2337 97.8807 100.947 97.8807 102.333 97.8807 103.74 96.8747 104.899 95.6788L103.873 97.6363C102.579 98.4045 101.366 99.0111 100.325 99.5611 98.7471 100.393 97.5665 101.095 97.1104 102.029 96.9729 102.306 96.9009 102.607 96.9009 102.935 96.9009 104.606 98.6489 105.442 99.8273 105.442 102.197 105.442 103.192 103.971 104.724 101.379 104.753 101.333 104.777 101.289 104.805 101.241 104.967 100.966 105.309 100.338 105.765 99.4869 106.223 98.6336 106.8 97.5556 107.426 96.3772 108.807 95.3777 110.278 94.2626 111.78 93.0274 113.728 91.4256 115.734 89.6122 117.665 87.563 117.855 87.3579 117.835 85.7256 117.456 86.0856ZM99.8426 104.172C99.4454 104.172 99.1028 103.982 99.1028 103.356 99.1028 102.9 99.4869 102.363 100.176 101.728 100.811 101.139 101.704 100.467 102.789 99.6898L102.143 100.942C102.023 101.165 101.909 101.383 101.802 101.591 101.021 103.101 100.528 104.172 99.8426 104.172ZM107.064 91.1572C105.848 93.2085 104.061 94.8801 103.074 94.8801 102.086 94.8801 102.295 93.2085 103.511 91.1572 104.746 89.1059 106.531 87.4343 107.5 87.4343 108.489 87.4343 108.299 89.1059 107.064 91.1572Z" fill="#FFFFFF" transform="matrix(1 0 0 1.0062 553 477.014)"/><path d="M122.11 92.9052C120.343 94.4633 118.538 95.6221 116.999 95.6221 115.365 95.6221 114.699 94.6532 115.025 93.1321 115.291 93.3787 115.614 93.5882 116.031 93.7017 117.685 94.2145 119.566 93.322 121.198 91.2881 123.915 87.8882 122.204 85.2651 119.45 85.2651 117.779 85.2651 115.175 86.7469 113.047 90.1294 112.991 90.221 112.934 90.3127 112.882 90.4021 112.338 91.3187 111.969 92.2047 111.78 93.0274 111.129 95.8272 112.532 97.8785 116.05 97.8785 117.761 97.8785 119.566 97.1759 121.144 95.884 122.985 94.3629 124.677 93.2805 124.677 94.8387 124.677 96.244 122.036 99.3603 116.755 99.3603 115.926 99.3603 111.491 99.4127 105.765 99.4869 104.048 99.5087 102.213 99.5327 100.325 99.5567 88.185 99.7138 73.817 99.9102 73.817 99.9102 73.817 99.9102 81.0163 103.899 83.2203 105.44 85.5466 103.744 91.1463 102.684 97.1082 102.025 98.1251 101.911 99.153 101.811 100.176 101.721 100.72 101.673 101.263 101.628 101.802 101.586 102.793 101.508 103.771 101.438 104.722 101.379 111.066 100.977 116.338 100.938 116.62 100.938 123.402 100.938 125.569 96.7765 125.569 94.0792 125.569 92.2025 123.612 91.6155 122.11 92.9052ZM119.869 87.4343C120.838 87.4343 119.812 89.658 118.597 90.6836 117.704 91.4256 116.639 92.1458 115.71 91.4256 115.766 91.3296 115.823 91.2554 115.863 91.1594 117.095 89.0862 118.881 87.4343 119.869 87.4343Z" fill="#FFFFFF" transform="matrix(1 0 0 1.0062 553 477.014)"/><path d="M87 126.94 86.3497 126.702 5.52329 97.0689 5.52329 36.0749 87 6.20634 87.6503 6.4442 168.477 36.0749 168.477 97.0689 87 126.94ZM9.30514 94.4284 87 122.911 164.695 94.4284 164.695 38.7176 87 10.2348 9.30514 38.7176 9.30514 94.4284Z" fill="#FFFFFF" transform="matrix(1 0 0 1.0062 553 477.014)"/><path d="M87 133.146 86.6508 133.013 0 100.011 0 33.1354 0.630672 32.8953 87 0 87.3492 0.133118 174 33.1354 174 100.011 173.369 100.251 87 133.146ZM1.96185 98.6598 87 131.049 172.038 98.6598 172.038 34.4862 87 2.09933 1.96185 34.4862 1.96185 98.6598Z" fill="#FFFFFF" transform="matrix(1 0 0 1.0062 553 477.014)"/><path d="M26.3878 88.5647C26.3878 88.6694 26.3944 88.6694 26.3944 88.7676 26.3944 88.8724 26.3813 88.8724 26.3813 88.9706 26.3813 89.036 26.3682 89.1015 26.3289 89.1408 26.2896 89.1866 26.2242 89.1932 26.1587 89.1932 26.0605 89.1932 26.0605 89.2128 25.9623 89.2128 25.8641 89.2128 25.8641 89.2063 25.7659 89.2063 25.6677 89.2063 25.6677 89.1997 25.5695 89.1997 25.4713 89.1997 25.4713 89.1932 25.3731 89.1932 25.2749 89.1932 25.2749 89.1866 25.1767 89.1866 25.0785 89.1866 25.0785 89.2063 24.9803 89.2063 24.8821 89.2063 24.8821 89.1932 24.7839 89.1932 24.6857 89.1932 24.6857 89.1866 24.5875 89.1866 24.4893 89.1866 24.4893 89.2128 24.3911 89.2128 24.2929 89.2128 24.2929 89.1932 24.1947 89.1932L23.9983 89.1932C23.9001 89.1932 23.9001 89.1866 23.8019 89.1866 23.7429 89.1866 23.6775 89.2194 23.6382 89.2586 23.5924 89.3045 23.5858 89.3634 23.5858 89.4288L23.5858 89.6645C23.5858 89.73 23.5989 89.7889 23.6382 89.8282 23.684 89.8675 23.7429 89.8937 23.8019 89.8937 23.9066 89.8937 23.9066 89.9002 24.0114 89.9002 24.1161 89.9002 24.1161 89.8937 24.2209 89.8937 24.3191 89.8937 24.3191 89.9002 24.4238 89.9002 24.5286 89.9002 24.5286 89.8871 24.6333 89.8871 24.7381 89.8871 24.7381 89.8806 24.8363 89.8806 24.941 89.8806 24.941 89.9002 25.0458 89.9002 25.1505 89.9002 25.1505 89.8806 25.2552 89.8806 25.3142 89.8806 25.3731 89.9199 25.4124 89.9591 25.4582 89.9984 25.4713 90.0573 25.4713 90.1228L25.4713 90.3258C25.4713 90.424 25.4844 90.424 25.4844 90.5287L25.4844 90.7317C25.4844 90.7906 25.4517 90.8495 25.4124 90.8888 25.3731 90.9281 25.3142 90.9673 25.2552 90.9673 25.1505 90.9673 25.1505 90.9477 25.0458 90.9477 24.941 90.9477 24.941 90.9673 24.8363 90.9673 24.7381 90.9673 24.7381 90.9542 24.6333 90.9542 24.5286 90.9542 24.5286 90.9673 24.4238 90.9673 24.3191 90.9673 24.3191 90.9542 24.2143 90.9542 24.1161 90.9542 24.1161 90.9608 24.0114 90.9608 23.9066 90.9608 23.9066 90.9542 23.8019 90.9542 23.7429 90.9542 23.684 90.987 23.6447 91.0263 23.6055 91.0655 23.5727 91.1245 23.5727 91.1834 23.5727 91.3012 23.5858 91.3012 23.5858 91.4191 23.5858 91.478 23.5924 91.5435 23.6382 91.5827 23.6775 91.6286 23.7429 91.6482 23.8019 91.6482L23.9983 91.6482C24.0965 91.6482 24.0965 91.6548 24.1947 91.6548 24.2929 91.6548 24.2929 91.6351 24.3911 91.6351L24.5875 91.6351C24.6857 91.6351 24.6857 91.6613 24.7839 91.6613 24.8821 91.6613 24.8821 91.6417 24.9737 91.6417 25.0719 91.6417 25.0719 91.6482 25.1701 91.6482 25.2683 91.6482 25.2683 91.6548 25.3665 91.6548 25.4647 91.6548 25.4647 91.6351 25.5629 91.6351 25.6611 91.6351 25.6611 91.6417 25.7593 91.6417 25.8576 91.6417 25.8576 91.6548 25.9558 91.6548L26.1456 91.6548C26.2111 91.6548 26.2635 91.6744 26.3027 91.7202 26.342 91.7595 26.3747 91.8119 26.3747 91.8708L26.3747 92.0737C26.3747 92.1785 26.3682 92.1785 26.3682 92.2767L26.3682 92.4796C26.3682 92.5451 26.3486 92.604 26.3093 92.6433 26.27 92.6826 26.2111 92.7022 26.1456 92.7022 26.0474 92.7022 26.0474 92.6957 25.9492 92.6957 25.8445 92.6957 25.8445 92.7022 25.7463 92.7022 25.6481 92.7022 25.6481 92.7219 25.5433 92.7219 25.4451 92.7219 25.4451 92.7153 25.3469 92.7153L25.144 92.7153C25.0458 92.7153 25.0458 92.7088 24.941 92.7088L24.7446 92.7088C24.6399 92.7088 24.6399 92.7088 24.5417 92.7088L24.3452 92.7088C24.2405 92.7088 24.2405 92.7088 24.1423 92.7088 24.0441 92.7088 24.0441 92.6957 23.9393 92.6957 23.8411 92.6957 23.8411 92.7153 23.7429 92.7153 23.6382 92.7153 23.6382 92.6957 23.54 92.6957 23.4418 92.6957 23.4418 92.7153 23.3436 92.7153 23.2388 92.7153 23.2388 92.7022 23.1406 92.7022 23.0424 92.7022 23.0424 92.7088 22.9377 92.7088L22.7413 92.7088C22.6758 92.7088 22.6234 92.6826 22.5776 92.6433 22.5383 92.5975 22.5056 92.5451 22.5056 92.4796 22.5056 92.3749 22.5187 92.3749 22.5187 92.2767 22.5187 92.1719 22.5252 92.1719 22.5252 92.0672 22.5252 91.9624 22.5187 91.9624 22.5187 91.8642 22.5187 91.7595 22.5056 91.7595 22.5056 91.6548L22.5056 91.4518C22.5056 91.3471 22.5056 91.3471 22.5056 91.2423 22.5056 91.1441 22.5252 91.1441 22.5252 91.0394 22.5252 90.9346 22.5056 90.9346 22.5056 90.8299L22.5056 90.6269C22.5056 90.5222 22.5056 90.5222 22.5056 90.424 22.5056 90.3192 22.5252 90.3192 22.5252 90.2145 22.5252 90.1097 22.4991 90.1097 22.4991 90.0115 22.4991 89.9068 22.5187 89.9068 22.5187 89.802 22.5187 89.7038 22.4991 89.7038 22.4991 89.5991L22.4991 89.3896C22.4991 89.2914 22.5187 89.2914 22.5187 89.1866 22.5187 89.0819 22.5252 89.0819 22.5252 88.9837 22.5252 88.8789 22.5122 88.8789 22.5122 88.7742 22.5122 88.676 22.5056 88.676 22.5056 88.5712 22.5056 88.4665 22.5122 88.4665 22.5122 88.3617 22.5122 88.3028 22.5449 88.2504 22.5842 88.2112 22.63 88.1719 22.6758 88.126 22.7413 88.126 22.8395 88.126 22.8395 88.1391 22.9442 88.1391 23.0424 88.1391 23.0424 88.1522 23.1406 88.1522 23.2454 88.1522 23.2454 88.126 23.3436 88.126 23.4483 88.126 23.4483 88.1326 23.5465 88.1326 23.6447 88.1326 23.6447 88.1391 23.7495 88.1391L23.9459 88.1391C24.0506 88.1391 24.0506 88.1391 24.1488 88.1391 24.247 88.1391 24.247 88.1457 24.3518 88.1457 24.45 88.1457 24.45 88.1391 24.5482 88.1391 24.6529 88.1391 24.6529 88.1326 24.7511 88.1326L24.9541 88.1326C25.0523 88.1326 25.0523 88.1391 25.157 88.1391 25.2552 88.1391 25.2552 88.1522 25.3535 88.1522 25.4582 88.1522 25.4582 88.1457 25.5564 88.1457L25.7593 88.1457C25.8576 88.1457 25.8576 88.1326 25.9558 88.1326 26.0605 88.1326 26.0605 88.126 26.1587 88.126 26.2242 88.126 26.2831 88.1588 26.3224 88.1981 26.3682 88.2373 26.3747 88.3028 26.3747 88.3617 26.3747 88.4665 26.3878 88.4665 26.3878 88.5647Z" fill="#FFFFFF" transform="matrix(1 0 0 1.0062 553 477.014)"/><path d="M31.9875 91.131C32.0006 91.1965 32.0202 91.2685 32.0202 91.3405 32.0202 91.406 32.0071 91.478 31.9941 91.5435 31.981 91.6155 31.9417 91.6744 31.9155 91.7399 31.8893 91.7988 31.8631 91.8642 31.8238 91.9232 31.7911 91.9821 31.7453 92.0345 31.6994 92.0868 31.6536 92.1327 31.6078 92.1916 31.5554 92.2374 31.503 92.2767 31.4376 92.316 31.3787 92.3553 31.3197 92.388 31.2543 92.4076 31.1953 92.4404 31.1299 92.4731 31.0775 92.5255 31.012 92.5517 30.9531 92.5779 30.8811 92.5975 30.8156 92.6171 30.7502 92.6368 30.6782 92.6433 30.6127 92.663 30.5472 92.676 30.4818 92.7022 30.4097 92.7153 30.3443 92.7284 30.2723 92.735 30.2068 92.7481 30.1348 92.7546 30.0628 92.735 29.9973 92.7415 29.9253 92.7415 29.8598 92.7677 29.7878 92.7677 29.7158 92.7677 29.6503 92.7415 29.5783 92.7415 29.5063 92.7415 29.4408 92.7546 29.3688 92.7481 29.2968 92.7481 29.2313 92.7415 29.1593 92.735 29.0873 92.7284 29.0218 92.7088 28.9564 92.7022 28.8843 92.6891 28.8123 92.6957 28.7469 92.6826 28.6748 92.6695 28.6028 92.6499 28.5374 92.6368 28.4719 92.6237 28.4064 92.5975 28.341 92.5844L28.138 92.5255C28.066 92.5058 27.994 92.4993 27.9285 92.4796 27.863 92.4535 27.8041 92.4142 27.7387 92.388L27.5488 92.3094C27.4768 92.2767 27.4048 92.2636 27.3524 92.2374 27.2935 92.2047 27.2673 92.1458 27.2542 92.0934 27.2411 92.0345 27.2476 91.9755 27.2869 91.9232 27.3393 91.8381 27.3589 91.8446 27.4113 91.7661 27.4702 91.6809 27.4571 91.6744 27.5161 91.5893 27.575 91.5042 27.5881 91.5107 27.6405 91.4322 27.6797 91.3798 27.7256 91.3405 27.7845 91.3274 27.8434 91.3143 27.9023 91.3209 27.9612 91.3471 28.0136 91.3732 28.0791 91.3994 28.1511 91.4322 28.21 91.4518 28.282 91.4649 28.354 91.4911 28.413 91.5107 28.4784 91.5369 28.5505 91.5565 28.6159 91.5762 28.6814 91.5827 28.7534 91.5958 28.8189 91.6089 28.8909 91.6155 28.9629 91.6286 29.0284 91.6351 29.0938 91.6613 29.1658 91.6678 29.2313 91.6744 29.3033 91.6678 29.3753 91.6744L29.5783 91.694C29.6503 91.694 29.7158 91.6875 29.7878 91.6875 29.8598 91.6875 29.9318 91.6875 30.0038 91.6809 30.0759 91.6809 30.1479 91.6875 30.2133 91.6809 30.2919 91.6678 30.3639 91.6613 30.4294 91.6482 30.5079 91.6286 30.5734 91.6155 30.6389 91.5958 30.7174 91.5696 30.7764 91.5238 30.8222 91.4911 30.9007 91.4387 30.9531 91.3863 30.9531 91.3274 30.9531 91.2816 30.8942 91.2423 30.8091 91.203 30.7567 91.1768 30.6912 91.1572 30.6258 91.131 30.5603 91.1179 30.5014 91.0786 30.4359 91.0655 30.3705 91.0459 30.305 91.0328 30.2395 91.0197 30.1741 91.0066 30.1086 91.0001 30.0431 90.987 29.9776 90.9739 29.9056 90.9739 29.8467 90.9673 29.7747 90.9542 29.7092 90.9346 29.6503 90.9281 29.5848 90.915 29.5194 90.915 29.4539 90.9019 29.395 90.8953 29.3295 90.8626 29.2641 90.856 29.2051 90.8429 29.1397 90.8364 29.0742 90.8233 29.0087 90.8037 28.9433 90.784 28.8843 90.7709 28.8189 90.7579 28.7534 90.7579 28.6879 90.7382 28.6225 90.7186 28.5701 90.6793 28.5112 90.6596 28.4457 90.64 28.3802 90.6269 28.3213 90.6007 28.2558 90.5745 28.21 90.5353 28.1511 90.5025 28.0922 90.4698 28.0398 90.4371 27.9874 90.3978 27.9351 90.3585 27.8696 90.3323 27.8303 90.2865 27.7845 90.2341 27.7583 90.1752 27.719 90.1163 27.6863 90.0639 27.647 90.0115 27.6208 89.946 27.6012 89.8871 27.5946 89.8217 27.5881 89.7562 27.575 89.6907 27.5488 89.6318 27.5488 89.5598 27.5488 89.4878 27.5684 89.4223 27.5815 89.3503 27.5946 89.2848 27.6274 89.2259 27.6535 89.1604 27.6797 89.095 27.719 89.0426 27.7583 88.9837 27.7976 88.9247 27.8369 88.8724 27.8892 88.82 27.9351 88.7676 27.9743 88.7153 28.0333 88.676 28.0856 88.6301 28.138 88.5909 28.2035 88.5516 28.2558 88.5189 28.3213 88.4861 28.3868 88.4599 28.4457 88.4272 28.4981 88.3814 28.5635 88.3552 28.629 88.329 28.701 88.3224 28.7665 88.2963 28.832 88.2766 28.8974 88.257 28.9629 88.2439 29.0349 88.2242 29.1004 88.2177 29.1724 88.2046 29.2379 88.1915 29.3033 88.1784 29.3753 88.1719 29.4408 88.1588 29.5128 88.1457 29.5783 88.1391 29.6503 88.1391 29.7158 88.1457 29.7878 88.1457 29.8598 88.1457 29.9253 88.1391 29.9907 88.1391 30.0562 88.1391 30.1217 88.1522 30.1871 88.1522L30.3835 88.1719C30.4556 88.1784 30.521 88.1719 30.5865 88.185 30.6585 88.1915 30.724 88.1981 30.7829 88.2112 30.8549 88.2242 30.9138 88.2504 30.9793 88.2635 31.0448 88.2832 31.1168 88.2897 31.1757 88.3094L31.3656 88.3683C31.4376 88.3945 31.49 88.4337 31.5423 88.4534 31.6012 88.4796 31.6602 88.5058 31.6733 88.5647 31.6864 88.6171 31.6602 88.676 31.6274 88.7283 31.5751 88.8135 31.5882 88.8265 31.5358 88.9117 31.4834 88.9968 31.49 88.9968 31.4376 89.0884L31.3328 89.2586C31.2674 89.3699 31.1233 89.4092 30.9989 89.3699 30.9466 89.3503 30.8811 89.3437 30.8025 89.3241 30.7436 89.311 30.6782 89.2848 30.6061 89.2717 30.5407 89.2586 30.4752 89.2586 30.4032 89.2455 30.3377 89.239 30.2723 89.2259 30.2002 89.2194 30.1348 89.2128 30.0628 89.2128 29.9907 89.2128 29.9253 89.2128 29.8598 89.1932 29.7878 89.1932 29.7158 89.1932 29.6438 89.2063 29.5783 89.2128 29.5063 89.2128 29.4343 89.2259 29.3688 89.2324 29.2902 89.2455 29.2182 89.239 29.1528 89.2521 29.0807 89.2652 29.0153 89.2979 28.9564 89.3241 28.8778 89.3503 28.8058 89.3699 28.76 89.4027 28.6748 89.4485 28.629 89.5074 28.629 89.5598 28.629 89.6122 28.701 89.6384 28.7927 89.6711 28.8516 89.6973 28.9105 89.7365 28.9891 89.7562 29.0546 89.7693 29.1266 89.7627 29.1986 89.7758L29.4081 89.8086C29.4801 89.8151 29.5521 89.8347 29.6176 89.8413 29.6896 89.8544 29.7616 89.8544 29.8205 89.8675 29.8925 89.874 29.958 89.8937 30.0235 89.9068L30.233 89.946C30.2984 89.9591 30.3639 89.9722 30.4294 89.9853 30.5014 89.9984 30.5669 90.0181 30.6323 90.0377 30.6978 90.0508 30.7633 90.077 30.8287 90.0966 30.9007 90.1163 30.9662 90.1294 31.0317 90.1555 31.0971 90.1817 31.1626 90.1948 31.2281 90.221 31.287 90.2537 31.3394 90.2996 31.3983 90.3323 31.4638 90.3716 31.5227 90.4043 31.5751 90.4436 31.6274 90.4894 31.6864 90.5287 31.7322 90.5811 31.778 90.6269 31.8042 90.6924 31.8435 90.7513 31.8762 90.8102 31.922 90.8626 31.9482 90.9281 31.9679 90.9935 31.9744 91.059 31.9875 91.131Z" fill="#FFFFFF" transform="matrix(1 0 0 1.0062 553 477.014)"/><path d="M37.3755 88.3617C37.3755 88.4665 37.382 88.4665 37.382 88.5647L37.382 88.7676C37.382 88.8724 37.3755 88.8724 37.3755 88.9706 37.3755 89.036 37.3493 89.095 37.31 89.1342 37.2642 89.1735 37.2118 89.2128 37.1464 89.2128L36.9369 89.2128C36.8321 89.2128 36.8321 89.1997 36.7274 89.1997 36.6226 89.1997 36.6226 89.2128 36.5244 89.2128 36.4197 89.2128 36.4197 89.2063 36.3149 89.2063L36.1054 89.2063C36.0007 89.2063 36.0007 89.2128 35.8959 89.2128 35.837 89.2128 35.7846 89.2324 35.7388 89.2717 35.6995 89.311 35.6733 89.3634 35.6733 89.4288 35.6733 89.5336 35.6799 89.5336 35.6799 89.6318 35.6799 89.7365 35.6733 89.7365 35.6733 89.8347 35.6733 89.9395 35.6668 89.9395 35.6668 90.0442 35.6668 90.1424 35.6799 90.1424 35.6799 90.2472L35.6799 90.4501C35.6799 90.5549 35.6733 90.5549 35.6733 90.6531L35.6733 90.856C35.6733 90.9608 35.6733 90.9608 35.6733 91.059 35.6733 91.1637 35.6668 91.1637 35.6668 91.2685 35.6668 91.3667 35.6602 91.3667 35.6602 91.4714L35.6602 91.6744C35.6602 91.7791 35.6733 91.7791 35.6733 91.8773L35.6733 92.0803C35.6733 92.185 35.6602 92.185 35.6602 92.2832 35.6602 92.388 35.6668 92.388 35.6668 92.4927 35.6668 92.5517 35.6406 92.6106 35.6013 92.6499 35.562 92.6891 35.5031 92.7153 35.4442 92.7153 35.3395 92.7153 35.3395 92.7284 35.2413 92.7284 35.1365 92.7284 35.1365 92.7219 35.0383 92.7219 34.9336 92.7219 34.9336 92.7284 34.8354 92.7284 34.7699 92.7284 34.7241 92.6826 34.6848 92.6433 34.6389 92.604 34.6128 92.5517 34.6128 92.4927L34.6128 92.2832C34.6128 92.185 34.5997 92.185 34.5997 92.0803 34.5997 91.9755 34.6193 91.9755 34.6193 91.8773 34.6193 91.7726 34.6062 91.7726 34.6062 91.6744 34.6062 91.5696 34.5997 91.5696 34.5997 91.4649 34.5997 91.3667 34.6128 91.3667 34.6128 91.2619 34.6128 91.1637 34.6193 91.1637 34.6193 91.059 34.6193 90.9608 34.5931 90.9608 34.5931 90.856 34.5931 90.7513 34.6062 90.7513 34.6062 90.6531 34.6062 90.5483 34.6128 90.5483 34.6128 90.4501 34.6128 90.3454 34.5997 90.3454 34.5997 90.2406 34.5997 90.1424 34.6062 90.1424 34.6062 90.0377L34.6062 89.8347C34.6062 89.7365 34.5931 89.7365 34.5931 89.6318 34.5931 89.5271 34.6193 89.5271 34.6193 89.4288 34.6193 89.3634 34.5866 89.3045 34.5407 89.2652 34.5015 89.2194 34.4425 89.2063 34.3771 89.2063 34.2723 89.2063 34.2723 89.1866 34.1676 89.1866L33.9515 89.1866C33.8468 89.1866 33.8468 89.2063 33.742 89.2063 33.6373 89.2063 33.6373 89.2128 33.5325 89.2128 33.4278 89.2128 33.4278 89.2063 33.3165 89.2063 33.2118 89.2063 33.2118 89.2128 33.107 89.2128 33.0481 89.2128 32.9892 89.1735 32.9433 89.1342 32.9041 89.095 32.891 89.036 32.891 88.9706 32.891 88.8724 32.8779 88.8724 32.8779 88.7676 32.8779 88.6694 32.8713 88.6694 32.8713 88.5647 32.8713 88.4665 32.8844 88.4665 32.8844 88.3617 32.8844 88.3028 32.9041 88.2439 32.9499 88.2046 32.9892 88.1653 33.0481 88.126 33.107 88.126 33.2118 88.126 33.2118 88.1391 33.31 88.1391 33.4147 88.1391 33.4147 88.1326 33.5129 88.1326 33.6111 88.1326 33.6111 88.1391 33.7159 88.1391 33.8141 88.1391 33.8141 88.126 33.9188 88.126 34.017 88.126 34.017 88.1457 34.1218 88.1457 34.22 88.1457 34.22 88.126 34.3247 88.126L34.5211 88.126C34.6259 88.126 34.6259 88.1326 34.7241 88.1326L34.927 88.1326C35.0252 88.1326 35.0252 88.1391 35.13 88.1391L35.3329 88.1391C35.4311 88.1391 35.4311 88.1391 35.5359 88.1391 35.6341 88.1391 35.6341 88.1326 35.7323 88.1326 35.837 88.1326 35.837 88.126 35.9352 88.126 36.04 88.126 36.04 88.1391 36.1382 88.1391 36.2364 88.1391 36.2364 88.126 36.3411 88.126 36.4393 88.126 36.4393 88.1457 36.5441 88.1457 36.6423 88.1457 36.6423 88.1326 36.7405 88.1326 36.8452 88.1326 36.8452 88.126 36.9434 88.126 37.0482 88.126 37.0482 88.1457 37.1464 88.1457 37.2118 88.1457 37.2773 88.1522 37.3166 88.1981 37.3559 88.2373 37.3755 88.3028 37.3755 88.3617Z" fill="#FFFFFF" transform="matrix(1 0 0 1.0062 553 477.014)"/><path d="M38.6128 91.8315C38.6783 91.8053 38.7503 91.7857 38.8354 91.7857 38.914 91.7857 38.986 91.7922 39.058 91.825 39.1366 91.8577 39.2086 91.9035 39.261 91.9624 39.3264 92.041 39.3657 92.1392 39.3657 92.244 39.3657 92.3487 39.3264 92.4469 39.261 92.5255 39.2086 92.5844 39.1366 92.6302 39.058 92.663 38.986 92.6957 38.914 92.7088 38.8354 92.7088 38.7503 92.7088 38.6783 92.7022 38.6063 92.6695 38.5277 92.6368 38.4623 92.5844 38.4099 92.5255 38.3379 92.4469 38.2986 92.3487 38.2986 92.244 38.2986 92.1392 38.3444 92.0476 38.4099 91.969 38.4623 91.9035 38.5277 91.8642 38.6128 91.8315Z" fill="#FFFFFF" transform="matrix(1 0 0 1.0062 553 477.014)"/><path d="M139.503 92.2243C139.503 92.3291 139.496 92.3291 139.496 92.4273 139.496 92.4927 139.464 92.5451 139.418 92.5844 139.379 92.6302 139.326 92.663 139.261 92.663 139.162 92.663 139.162 92.6695 139.058 92.6695 138.96 92.6695 138.96 92.6499 138.861 92.6499 138.757 92.6499 138.757 92.6695 138.658 92.6695 138.554 92.6695 138.554 92.663 138.455 92.663L138.252 92.663C138.154 92.663 138.154 92.6564 138.05 92.6564 137.951 92.6564 137.951 92.6433 137.853 92.6433 137.748 92.6433 137.748 92.6564 137.65 92.6564L137.447 92.6564C137.349 92.6564 137.349 92.663 137.244 92.663L137.041 92.663C136.943 92.663 136.943 92.6433 136.845 92.6433 136.74 92.6433 136.74 92.6499 136.642 92.6499 136.537 92.6499 136.537 92.6433 136.439 92.6433 136.334 92.6433 136.334 92.6564 136.236 92.6564 136.138 92.6564 136.138 92.663 136.033 92.663 135.935 92.663 135.935 92.6695 135.83 92.6695 135.732 92.6695 135.732 92.6499 135.627 92.6499L135.431 92.6499C135.326 92.6499 135.326 92.663 135.228 92.663 135.162 92.663 135.11 92.6237 135.071 92.5844 135.031 92.5386 135.005 92.4927 135.005 92.4273 135.005 92.3553 134.992 92.3553 134.992 92.2767 134.992 92.1981 134.986 92.1981 134.986 92.1261 134.986 92.0541 134.999 91.9886 135.012 91.9232 135.025 91.8512 135.045 91.7857 135.064 91.7268 135.09 91.6613 135.123 91.6024 135.156 91.5435 135.189 91.4845 135.208 91.4191 135.254 91.3667 135.293 91.3143 135.346 91.2685 135.392 91.2161L135.549 91.0852C135.601 91.0459 135.647 90.9935 135.706 90.9542 135.758 90.915 135.817 90.8822 135.876 90.8429 135.935 90.8102 136 90.7906 136.059 90.7579 136.118 90.7251 136.177 90.6924 136.243 90.6662 136.302 90.6335 136.354 90.5876 136.413 90.5614 136.478 90.5287 136.55 90.5222 136.609 90.496 136.675 90.4698 136.727 90.424 136.793 90.3978 136.851 90.3716 136.917 90.3585 136.982 90.3323 137.048 90.3061 137.107 90.2734 137.172 90.2537 137.225 90.2276 137.29 90.2145 137.356 90.1883 137.408 90.1621 137.467 90.1294 137.526 90.1032L137.709 90.0246C137.768 89.9984 137.833 89.9984 137.892 89.9722L138.069 89.8871C138.135 89.8544 138.187 89.8217 138.239 89.7889 138.292 89.7562 138.331 89.6907 138.338 89.6318 138.351 89.5663 138.318 89.5074 138.266 89.4681 138.213 89.4354 138.154 89.3896 138.076 89.3568 138.017 89.3372 137.945 89.3045 137.873 89.2848 137.807 89.2652 137.729 89.2717 137.657 89.2586 137.585 89.2455 137.519 89.2259 137.441 89.2194 137.369 89.2128 137.297 89.2259 137.225 89.2259 137.153 89.2259 137.081 89.2063 137.009 89.2128 136.937 89.2194 136.865 89.2455 136.799 89.2586 136.727 89.2717 136.648 89.2717 136.583 89.2914 136.511 89.311 136.446 89.3437 136.387 89.3699 136.334 89.4027 136.302 89.4419 136.269 89.4681 136.236 89.5009 136.184 89.5205 136.125 89.5467 136.079 89.5663 136.027 89.5925 135.968 89.5925L135.765 89.5925C135.666 89.5925 135.666 89.5925 135.562 89.5925 135.464 89.5925 135.464 89.5794 135.359 89.5794 135.3 89.5794 135.241 89.5663 135.202 89.5271 135.162 89.4812 135.136 89.4223 135.143 89.3634 135.156 89.2914 135.189 89.2324 135.215 89.167 135.234 89.1015 135.261 89.036 135.293 88.9771 135.333 88.9182 135.372 88.8658 135.418 88.8135 135.457 88.7611 135.503 88.7022 135.555 88.6563 135.608 88.6105 135.673 88.5843 135.732 88.545 135.784 88.5123 135.837 88.4665 135.902 88.4337 135.961 88.4076 136.013 88.3683 136.079 88.3486 136.138 88.3224 136.197 88.2963 136.262 88.2766 136.321 88.257 136.387 88.2373 136.446 88.2242 136.511 88.2112 136.576 88.2046 136.642 88.1981 136.707 88.185 136.766 88.1784 136.832 88.1719 136.897 88.1653 136.963 88.1588 137.028 88.1588 137.094 88.1522 137.159 88.1391 137.225 88.1391L137.428 88.1391C137.493 88.1457 137.559 88.1784 137.624 88.185 137.689 88.1915 137.761 88.185 137.827 88.1981 137.892 88.2046 137.958 88.2308 138.017 88.2439 138.089 88.257 138.154 88.2504 138.22 88.2701 138.285 88.2897 138.344 88.329 138.403 88.3552L138.586 88.4337C138.645 88.4665 138.704 88.4927 138.763 88.5254 138.822 88.5647 138.887 88.5909 138.94 88.6301 138.992 88.6694 139.032 88.7218 139.077 88.7676 139.13 88.8135 139.169 88.8658 139.208 88.9182 139.248 88.9771 139.293 89.0229 139.326 89.0819 139.359 89.1408 139.398 89.1997 139.418 89.2586 139.437 89.3241 139.457 89.3896 139.47 89.455 139.483 89.5205 139.47 89.5925 139.47 89.658 139.47 89.73 139.477 89.7955 139.464 89.8609 139.451 89.9329 139.418 89.9919 139.392 90.0508 139.365 90.1163 139.339 90.1752 139.3 90.2341 139.261 90.2865 139.215 90.3389 139.169 90.3912 139.123 90.4371 139.071 90.4763 139.012 90.5222 138.96 90.5614 138.907 90.6007 138.848 90.64 138.789 90.6727 138.743 90.7317 138.685 90.7644 138.626 90.7971 138.56 90.8233 138.501 90.856 138.442 90.8822 138.383 90.9215 138.318 90.9477L138.135 91.0263C138.069 91.0524 138.01 91.0786 137.945 91.1048L137.755 91.1834C137.696 91.2096 137.631 91.2292 137.565 91.2554 137.506 91.2816 137.441 91.3143 137.362 91.3405 137.303 91.3667 137.225 91.3798 137.159 91.406 137.087 91.4387 137.022 91.4584 136.956 91.4911 136.838 91.5435 136.851 91.5893 136.976 91.5893 137.081 91.5893 137.081 91.5958 137.185 91.5958 137.29 91.5958 137.29 91.6024 137.395 91.6024 137.493 91.6024 137.493 91.5827 137.598 91.5827 137.703 91.5827 137.703 91.5893 137.807 91.5893L138.017 91.5893C138.122 91.5893 138.122 91.5958 138.22 91.5958 138.324 91.5958 138.324 91.5893 138.429 91.5893L138.639 91.5893C138.743 91.5893 138.743 91.6024 138.848 91.6024 138.953 91.6024 138.953 91.5958 139.051 91.5958 139.156 91.5958 139.156 91.5827 139.261 91.5827 139.326 91.5827 139.372 91.6286 139.418 91.6678 139.457 91.7071 139.483 91.7595 139.483 91.8184 139.483 91.9232 139.477 91.9232 139.477 92.0214 139.477 92.1261 139.503 92.1261 139.503 92.2243Z" fill="#FFFFFF" transform="matrix(1 0 0 1.0062 553 477.014)"/><path d="M145.591 90.6269C145.585 90.6989 145.552 90.7644 145.539 90.8299 145.526 90.8953 145.513 90.9608 145.493 91.0263 145.474 91.0917 145.454 91.1637 145.428 91.2227 145.402 91.2881 145.362 91.3471 145.33 91.406 145.297 91.4649 145.251 91.5173 145.212 91.5762 145.172 91.6351 145.14 91.694 145.1 91.7464 145.055 91.7988 144.996 91.8381 144.943 91.8839 144.897 91.9363 144.865 92.0017 144.812 92.0476 144.76 92.0934 144.708 92.1327 144.649 92.1719 144.596 92.2178 144.524 92.2309 144.465 92.2701 144.406 92.3029 144.354 92.3487 144.295 92.3814 144.236 92.4142 144.177 92.4535 144.112 92.4796 144.046 92.5058 143.981 92.5189 143.915 92.5451 143.85 92.5648 143.778 92.5713 143.712 92.5909 143.647 92.6106 143.582 92.6368 143.516 92.6499 143.451 92.663 143.379 92.6564 143.313 92.6695L143.104 92.6891C143.038 92.6957 142.973 92.7088 142.901 92.7088 142.835 92.7088 142.763 92.6957 142.698 92.6891 142.626 92.6826 142.56 92.6826 142.495 92.6695 142.423 92.663 142.357 92.663 142.285 92.6499 142.22 92.6368 142.154 92.6171 142.089 92.5975 142.023 92.5779 141.951 92.5779 141.886 92.5517 141.82 92.532 141.762 92.4927 141.696 92.4666 141.637 92.4404 141.565 92.4207 141.506 92.388L141.323 92.2898C141.264 92.2505 141.212 92.2112 141.159 92.1719 141.1 92.1261 141.048 92.0868 140.996 92.041 140.943 91.9952 140.897 91.9428 140.845 91.897 140.799 91.8512 140.76 91.7857 140.721 91.7333 140.675 91.6809 140.609 91.6417 140.57 91.5893 140.531 91.5304 140.498 91.4714 140.465 91.4125 140.433 91.3536 140.413 91.2816 140.38 91.2227 140.354 91.1572 140.315 91.0983 140.295 91.0328 140.275 90.9673 140.275 90.8953 140.262 90.8299 140.249 90.7644 140.236 90.6924 140.23 90.6269 140.223 90.5614 140.23 90.4894 140.23 90.424 140.23 90.3519 140.217 90.2865 140.223 90.2145 140.236 90.149 140.23 90.077 140.249 90.0115 140.262 89.946 140.282 89.874 140.302 89.8086 140.321 89.7431 140.361 89.6842 140.387 89.6253 140.413 89.5598 140.446 89.5009 140.478 89.4419 140.511 89.3765 140.537 89.311 140.577 89.2586 140.616 89.1997 140.655 89.1473 140.701 89.095 140.747 89.0426 140.793 88.9902 140.845 88.9444 140.891 88.892 140.937 88.8396 140.989 88.8004 141.041 88.7545 141.094 88.7087 141.153 88.6694 141.205 88.6301 141.271 88.5909 141.329 88.5581 141.382 88.5189 141.454 88.5058 141.513 88.473 141.578 88.4403 141.637 88.4076 141.703 88.3814 141.762 88.3552 141.827 88.329 141.892 88.3094 141.958 88.2832 142.017 88.257 142.082 88.2373 142.148 88.2177 142.22 88.2177 142.292 88.2046 142.357 88.1915 142.423 88.1588 142.488 88.1522 142.554 88.1391 142.626 88.1457 142.698 88.1457 142.763 88.1391 142.835 88.1195 142.901 88.1195 142.973 88.1195 143.038 88.1326 143.11 88.1391 143.176 88.1457 143.241 88.1653 143.313 88.1719 143.379 88.1784 143.444 88.1915 143.516 88.2046 143.582 88.2177 143.654 88.2177 143.719 88.2373L143.915 88.2963C143.981 88.3224 144.046 88.3421 144.105 88.3683 144.171 88.3945 144.236 88.4272 144.295 88.4599 144.354 88.4927 144.406 88.5385 144.465 88.5712 144.524 88.6105 144.596 88.6236 144.655 88.6629 144.708 88.7087 144.747 88.7676 144.799 88.8135 144.852 88.8593 144.904 88.9051 144.95 88.9509 145.002 88.9968 145.041 89.0557 145.081 89.1081 145.127 89.1604 145.192 89.1997 145.231 89.2521 145.271 89.311 145.29 89.3765 145.323 89.4419 145.356 89.5009 145.395 89.5598 145.421 89.6187 145.447 89.6842 145.487 89.7431 145.506 89.8086 145.532 89.874 145.519 89.946 145.532 90.0181 145.546 90.0835 145.559 90.149 145.565 90.2145 145.572 90.2865 145.591 90.3519 145.591 90.424 145.591 90.4894 145.598 90.5614 145.591 90.6269ZM144.537 90.424C144.537 90.3519 144.518 90.2865 144.498 90.221 144.485 90.1555 144.478 90.0835 144.452 90.0181 144.42 89.9591 144.367 89.9068 144.328 89.8544 144.289 89.7955 144.256 89.7365 144.21 89.6907 144.164 89.6384 144.099 89.6056 144.046 89.5663 143.994 89.5271 143.942 89.4812 143.883 89.4419 143.824 89.4092 143.765 89.3699 143.706 89.3437 143.64 89.3176 143.575 89.2979 143.51 89.2783 143.444 89.2586 143.379 89.2521 143.307 89.239 143.241 89.2259 143.176 89.2194 143.104 89.2128 143.038 89.2063 142.973 89.1997 142.901 89.1997 142.835 89.1997 142.763 89.1866 142.698 89.1932 142.626 89.1997 142.56 89.2128 142.495 89.2259 142.423 89.239 142.357 89.2652 142.298 89.2848 142.226 89.3045 142.161 89.3241 142.102 89.3503 142.036 89.3765 141.984 89.4223 141.925 89.455 141.866 89.4878 141.801 89.514 141.748 89.5532 141.696 89.5991 141.65 89.6514 141.604 89.6973 141.552 89.7496 141.513 89.802 141.473 89.8544 141.434 89.9133 141.395 89.9657 141.369 90.0246 141.343 90.0901 141.316 90.1555 141.303 90.221 141.29 90.2865 141.277 90.3519 141.277 90.424 141.277 90.4894 141.271 90.5614 141.284 90.6269 141.297 90.6924 141.343 90.7513 141.375 90.8102 141.401 90.8757 141.434 90.9346 141.473 90.987 141.513 91.0459 141.545 91.1048 141.598 91.1507 141.644 91.1965 141.703 91.2292 141.762 91.275 141.814 91.3143 141.853 91.3732 141.919 91.406 141.978 91.4387 142.036 91.4649 142.102 91.4911 142.161 91.5173 142.226 91.55 142.292 91.5696 142.357 91.5893 142.429 91.5958 142.495 91.6089 142.56 91.622 142.632 91.622 142.698 91.6286 142.763 91.6351 142.835 91.6417 142.901 91.6417 142.973 91.6417 143.038 91.6482 143.104 91.6417 143.176 91.6351 143.241 91.622 143.307 91.6089 143.379 91.5958 143.438 91.5696 143.503 91.55 143.568 91.5304 143.634 91.5042 143.693 91.478 143.758 91.4518 143.824 91.4256 143.883 91.3929 143.942 91.3601 143.994 91.3143 144.046 91.275 144.099 91.2358 144.151 91.1899 144.197 91.1441 144.249 91.0917 144.295 91.0459 144.334 90.987 144.374 90.9346 144.42 90.8822 144.452 90.8233 144.478 90.7579 144.498 90.6924 144.511 90.6269 144.531 90.5614 144.537 90.4894 144.537 90.424Z" fill="#FFFFFF" transform="matrix(1 0 0 1.0062 553 477.014)"/><path d="M150.831 92.2243C150.831 92.3291 150.824 92.3291 150.824 92.4273 150.824 92.4927 150.792 92.5451 150.746 92.5844 150.707 92.6302 150.654 92.663 150.589 92.663 150.491 92.663 150.491 92.6695 150.386 92.6695 150.288 92.6695 150.288 92.6499 150.189 92.6499 150.085 92.6499 150.085 92.6695 149.986 92.6695 149.882 92.6695 149.882 92.663 149.784 92.663L149.581 92.663C149.482 92.663 149.482 92.6564 149.378 92.6564 149.279 92.6564 149.279 92.6433 149.181 92.6433 149.076 92.6433 149.076 92.6564 148.978 92.6564L148.775 92.6564C148.677 92.6564 148.677 92.663 148.572 92.663L148.369 92.663C148.271 92.663 148.271 92.6433 148.173 92.6433 148.068 92.6433 148.068 92.6499 147.97 92.6499 147.865 92.6499 147.865 92.6433 147.767 92.6433 147.662 92.6433 147.662 92.6564 147.564 92.6564 147.466 92.6564 147.466 92.663 147.361 92.663 147.263 92.663 147.263 92.6695 147.158 92.6695 147.06 92.6695 147.06 92.6499 146.955 92.6499L146.759 92.6499C146.654 92.6499 146.654 92.663 146.556 92.663 146.49 92.663 146.438 92.6237 146.399 92.5844 146.36 92.5386 146.333 92.4927 146.333 92.4273 146.333 92.3553 146.32 92.3553 146.32 92.2767 146.32 92.1981 146.314 92.1981 146.314 92.1261 146.314 92.0541 146.327 91.9886 146.34 91.9232 146.353 91.8512 146.373 91.7857 146.392 91.7268 146.418 91.6613 146.451 91.6024 146.484 91.5435 146.517 91.4845 146.536 91.4191 146.582 91.3667 146.621 91.3143 146.674 91.2685 146.72 91.2161L146.877 91.0852C146.929 91.0459 146.975 90.9935 147.034 90.9542 147.086 90.915 147.145 90.8822 147.204 90.8429 147.263 90.8102 147.328 90.7906 147.387 90.7579 147.446 90.7251 147.505 90.6924 147.571 90.6662 147.63 90.6335 147.682 90.5876 147.741 90.5614 147.806 90.5287 147.878 90.5222 147.937 90.496 148.003 90.4698 148.055 90.424 148.121 90.3978 148.18 90.3716 148.245 90.3585 148.31 90.3323 148.376 90.3061 148.435 90.2734 148.5 90.2537 148.553 90.2276 148.618 90.2145 148.684 90.1883 148.736 90.1621 148.795 90.1294 148.854 90.1032L149.037 90.0246C149.096 89.9984 149.162 89.9984 149.22 89.9722L149.397 89.8871C149.463 89.8544 149.515 89.8217 149.567 89.7889 149.62 89.7562 149.659 89.6907 149.666 89.6318 149.679 89.5663 149.646 89.5074 149.594 89.4681 149.541 89.4354 149.482 89.3896 149.404 89.3568 149.345 89.3372 149.273 89.3045 149.201 89.2848 149.135 89.2652 149.057 89.2717 148.985 89.2586 148.913 89.2455 148.847 89.2259 148.769 89.2194 148.697 89.2128 148.625 89.2259 148.553 89.2259 148.481 89.2259 148.409 89.2063 148.337 89.2128 148.265 89.2194 148.193 89.2455 148.127 89.2586 148.055 89.2717 147.977 89.2717 147.911 89.2914 147.839 89.311 147.774 89.3437 147.715 89.3699 147.662 89.4027 147.63 89.4419 147.597 89.4681 147.564 89.5009 147.512 89.5205 147.453 89.5467 147.407 89.5663 147.355 89.5925 147.296 89.5925L147.093 89.5925C146.995 89.5925 146.995 89.5925 146.89 89.5925 146.792 89.5925 146.792 89.5794 146.687 89.5794 146.628 89.5794 146.569 89.5663 146.53 89.5271 146.49 89.4812 146.464 89.4223 146.471 89.3634 146.484 89.2914 146.517 89.2324 146.543 89.167 146.562 89.1015 146.589 89.036 146.621 88.9771 146.661 88.9182 146.7 88.8658 146.746 88.8135 146.785 88.7611 146.831 88.7022 146.883 88.6563 146.936 88.6105 147.001 88.5843 147.06 88.545 147.112 88.5123 147.165 88.4665 147.23 88.4337 147.289 88.4076 147.342 88.3683 147.407 88.3486 147.466 88.3224 147.525 88.2963 147.59 88.2766 147.649 88.257 147.715 88.2373 147.774 88.2242 147.839 88.2112 147.905 88.2046 147.97 88.1981 148.036 88.185 148.094 88.1784 148.16 88.1719 148.225 88.1653 148.291 88.1588 148.356 88.1588 148.422 88.1522 148.487 88.1391 148.553 88.1391L148.756 88.1391C148.821 88.1457 148.887 88.1784 148.952 88.185 149.018 88.1915 149.09 88.185 149.155 88.1981 149.22 88.2046 149.286 88.2308 149.345 88.2439 149.417 88.257 149.482 88.2504 149.548 88.2701 149.613 88.2897 149.672 88.329 149.731 88.3552L149.914 88.4337C149.973 88.4665 150.032 88.4927 150.091 88.5254 150.15 88.5647 150.216 88.5909 150.268 88.6301 150.32 88.6694 150.36 88.7218 150.405 88.7676 150.458 88.8135 150.497 88.8658 150.536 88.9182 150.576 88.9771 150.621 89.0229 150.654 89.0819 150.687 89.1408 150.726 89.1997 150.746 89.2586 150.766 89.3241 150.785 89.3896 150.798 89.455 150.811 89.5205 150.798 89.5925 150.798 89.658 150.798 89.73 150.805 89.7955 150.792 89.8609 150.779 89.9329 150.746 89.9919 150.72 90.0508 150.693 90.1163 150.667 90.1752 150.628 90.2341 150.589 90.2865 150.543 90.3389 150.497 90.3912 150.451 90.4371 150.399 90.4763 150.34 90.5222 150.288 90.5614 150.235 90.6007 150.176 90.64 150.117 90.6727 150.072 90.7317 150.013 90.7644 149.954 90.7971 149.888 90.8233 149.829 90.856 149.77 90.8822 149.711 90.9215 149.646 90.9477L149.463 91.0263C149.397 91.0524 149.338 91.0786 149.273 91.1048L149.083 91.1834C149.024 91.2096 148.959 91.2292 148.893 91.2554 148.834 91.2816 148.769 91.3143 148.69 91.3405 148.631 91.3667 148.553 91.3798 148.487 91.406 148.415 91.4387 148.35 91.4584 148.284 91.4911 148.166 91.5435 148.18 91.5893 148.304 91.5893 148.409 91.5893 148.409 91.5958 148.513 91.5958 148.618 91.5958 148.618 91.6024 148.723 91.6024 148.821 91.6024 148.821 91.5827 148.926 91.5827 149.031 91.5827 149.031 91.5893 149.135 91.5893L149.345 91.5893C149.45 91.5893 149.45 91.5958 149.548 91.5958 149.653 91.5958 149.653 91.5893 149.757 91.5893L149.967 91.5893C150.072 91.5893 150.072 91.6024 150.176 91.6024 150.281 91.6024 150.281 91.5958 150.379 91.5958 150.484 91.5958 150.484 91.5827 150.589 91.5827 150.654 91.5827 150.7 91.6286 150.746 91.6678 150.785 91.7071 150.811 91.7595 150.811 91.8184 150.811 91.9232 150.805 91.9232 150.805 92.0214 150.805 92.1261 150.831 92.1261 150.831 92.2243Z" fill="#FFFFFF" transform="matrix(1 0 0 1.0062 553 477.014)"/><path d="M156.919 90.6269C156.913 90.6989 156.88 90.7644 156.867 90.8299 156.854 90.8953 156.841 90.9608 156.821 91.0263 156.802 91.0917 156.782 91.1637 156.756 91.2227 156.73 91.2881 156.69 91.3471 156.658 91.406 156.625 91.4649 156.579 91.5173 156.54 91.5762 156.5 91.6351 156.468 91.694 156.428 91.7464 156.383 91.7988 156.324 91.8381 156.271 91.8839 156.226 91.9363 156.193 92.0017 156.14 92.0476 156.088 92.0934 156.036 92.1327 155.977 92.1719 155.924 92.2178 155.852 92.2309 155.793 92.2701 155.735 92.3029 155.682 92.3487 155.623 92.3814 155.564 92.4142 155.505 92.4535 155.44 92.4796 155.374 92.5058 155.309 92.5189 155.244 92.5451 155.178 92.5648 155.106 92.5713 155.041 92.5909 154.975 92.6106 154.91 92.6368 154.844 92.6499 154.779 92.663 154.707 92.6564 154.641 92.6695L154.432 92.6891C154.366 92.6957 154.301 92.7088 154.229 92.7088 154.163 92.7088 154.091 92.6957 154.026 92.6891 153.954 92.6826 153.888 92.6826 153.823 92.6695 153.751 92.663 153.685 92.663 153.613 92.6499 153.548 92.6368 153.482 92.6171 153.417 92.5975 153.351 92.5779 153.279 92.5779 153.214 92.5517 153.149 92.532 153.09 92.4927 153.024 92.4666 152.965 92.4404 152.893 92.4207 152.834 92.388L152.651 92.2898C152.592 92.2505 152.54 92.2112 152.487 92.1719 152.428 92.1261 152.376 92.0868 152.324 92.041 152.271 91.9952 152.225 91.9428 152.173 91.897 152.127 91.8512 152.088 91.7857 152.049 91.7333 152.003 91.6809 151.937 91.6417 151.898 91.5893 151.859 91.5304 151.826 91.4714 151.793 91.4125 151.761 91.3536 151.741 91.2816 151.708 91.2227 151.682 91.1572 151.643 91.0983 151.623 91.0328 151.604 90.9673 151.604 90.8953 151.59 90.8299 151.577 90.7644 151.564 90.6924 151.558 90.6269 151.551 90.5614 151.558 90.4894 151.558 90.424 151.558 90.3519 151.545 90.2865 151.551 90.2145 151.564 90.149 151.558 90.077 151.577 90.0115 151.59 89.946 151.61 89.874 151.63 89.8086 151.649 89.7431 151.689 89.6842 151.715 89.6253 151.741 89.5598 151.774 89.5009 151.806 89.4419 151.839 89.3765 151.865 89.311 151.905 89.2586 151.944 89.1997 151.983 89.1473 152.029 89.095 152.075 89.0426 152.121 88.9902 152.173 88.9444 152.219 88.892 152.265 88.8396 152.317 88.8004 152.369 88.7545 152.422 88.7087 152.481 88.6694 152.533 88.6301 152.599 88.5909 152.658 88.5581 152.71 88.5189 152.782 88.5058 152.841 88.473 152.906 88.4403 152.965 88.4076 153.031 88.3814 153.09 88.3552 153.155 88.329 153.221 88.3094 153.286 88.2832 153.345 88.257 153.41 88.2373 153.476 88.2177 153.548 88.2177 153.62 88.2046 153.685 88.1915 153.751 88.1588 153.816 88.1522 153.882 88.1391 153.954 88.1457 154.026 88.1457 154.091 88.1391 154.163 88.1195 154.229 88.1195 154.301 88.1195 154.366 88.1326 154.438 88.1391 154.504 88.1457 154.569 88.1653 154.641 88.1719 154.707 88.1784 154.772 88.1915 154.844 88.2046 154.91 88.2177 154.982 88.2177 155.047 88.2373L155.244 88.2963C155.309 88.3224 155.374 88.3421 155.433 88.3683 155.499 88.3945 155.564 88.4272 155.623 88.4599 155.682 88.4927 155.735 88.5385 155.793 88.5712 155.852 88.6105 155.924 88.6236 155.983 88.6629 156.036 88.7087 156.075 88.7676 156.127 88.8135 156.18 88.8593 156.232 88.9051 156.278 88.9509 156.33 88.9968 156.37 89.0557 156.409 89.1081 156.455 89.1604 156.52 89.1997 156.559 89.2521 156.599 89.311 156.618 89.3765 156.651 89.4419 156.684 89.5009 156.723 89.5598 156.749 89.6187 156.775 89.6842 156.815 89.7431 156.834 89.8086 156.861 89.874 156.847 89.946 156.861 90.0181 156.874 90.0835 156.887 90.149 156.893 90.2145 156.9 90.2865 156.919 90.3519 156.919 90.424 156.919 90.4894 156.926 90.5614 156.919 90.6269ZM155.865 90.424C155.865 90.3519 155.846 90.2865 155.826 90.221 155.813 90.1555 155.807 90.0835 155.78 90.0181 155.748 89.9591 155.695 89.9068 155.656 89.8544 155.617 89.7955 155.584 89.7365 155.538 89.6907 155.492 89.6384 155.427 89.6056 155.374 89.5663 155.322 89.5271 155.27 89.4812 155.211 89.4419 155.152 89.4092 155.093 89.3699 155.034 89.3437 154.969 89.3176 154.903 89.2979 154.838 89.2783 154.772 89.2586 154.707 89.2521 154.635 89.239 154.569 89.2259 154.504 89.2194 154.432 89.2128 154.366 89.2063 154.301 89.1997 154.229 89.1997 154.163 89.1997 154.091 89.1866 154.026 89.1932 153.954 89.1997 153.888 89.2128 153.823 89.2259 153.751 89.239 153.685 89.2652 153.626 89.2848 153.554 89.3045 153.489 89.3241 153.43 89.3503 153.365 89.3765 153.312 89.4223 153.253 89.455 153.194 89.4878 153.129 89.514 153.077 89.5532 153.024 89.5991 152.978 89.6514 152.932 89.6973 152.88 89.7496 152.841 89.802 152.802 89.8544 152.762 89.9133 152.723 89.9657 152.697 90.0246 152.671 90.0901 152.644 90.1555 152.631 90.221 152.618 90.2865 152.605 90.3519 152.605 90.424 152.605 90.4894 152.599 90.5614 152.612 90.6269 152.625 90.6924 152.671 90.7513 152.703 90.8102 152.73 90.8757 152.762 90.9346 152.802 90.987 152.841 91.0459 152.874 91.1048 152.926 91.1507 152.972 91.1965 153.031 91.2292 153.09 91.275 153.142 91.3143 153.181 91.3732 153.247 91.406 153.306 91.4387 153.365 91.4649 153.43 91.4911 153.489 91.5173 153.554 91.55 153.62 91.5696 153.685 91.5893 153.757 91.5958 153.823 91.6089 153.888 91.622 153.96 91.622 154.026 91.6286 154.091 91.6351 154.163 91.6417 154.229 91.6417 154.301 91.6417 154.366 91.6482 154.432 91.6417 154.504 91.6351 154.569 91.622 154.635 91.6089 154.707 91.5958 154.766 91.5696 154.831 91.55 154.897 91.5304 154.962 91.5042 155.021 91.478 155.086 91.4518 155.152 91.4256 155.211 91.3929 155.27 91.3601 155.322 91.3143 155.374 91.275 155.427 91.2358 155.479 91.1899 155.525 91.1441 155.577 91.0917 155.623 91.0459 155.663 90.987 155.702 90.9346 155.748 90.8822 155.78 90.8233 155.807 90.7579 155.826 90.6924 155.839 90.6269 155.859 90.5614 155.865 90.4894 155.865 90.424Z" fill="#FFFFFF" transform="matrix(1 0 0 1.0062 553 477.014)"/></g></svg>